<mxfile host="app.diagrams.net" agent="Mozilla/5.0 (Windows NT 10.0; Win64; x64) AppleWebKit/537.36 (KHTML, like Gecko) Chrome/128.0.0.0 Safari/537.36" version="24.7.14">
  <diagram name="Page-1" id="dXMuiXrwdA9n0Wkot7jD">
    <mxGraphModel dx="1195" dy="1750" grid="1" gridSize="10" guides="1" tooltips="1" connect="1" arrows="1" fold="1" page="1" pageScale="1" pageWidth="850" pageHeight="1100" math="0" shadow="0">
      <root>
        <mxCell id="0" />
        <mxCell id="1" parent="0" />
        <mxCell id="Lv1oq39Oq0ErjtgaDXQU-25" style="edgeStyle=orthogonalEdgeStyle;rounded=0;orthogonalLoop=1;jettySize=auto;html=1;exitX=0;exitY=0.5;exitDx=0;exitDy=0;entryX=1;entryY=0.5;entryDx=0;entryDy=0;dashed=1;" edge="1" parent="1" source="Lv1oq39Oq0ErjtgaDXQU-23" target="Lv1oq39Oq0ErjtgaDXQU-15">
          <mxGeometry relative="1" as="geometry" />
        </mxCell>
        <mxCell id="Lv1oq39Oq0ErjtgaDXQU-31" style="edgeStyle=orthogonalEdgeStyle;rounded=0;orthogonalLoop=1;jettySize=auto;html=1;exitX=1;exitY=0.5;exitDx=0;exitDy=0;entryX=0;entryY=0.5;entryDx=0;entryDy=0;dashed=1;" edge="1" parent="1" source="Lv1oq39Oq0ErjtgaDXQU-23" target="Lv1oq39Oq0ErjtgaDXQU-27">
          <mxGeometry relative="1" as="geometry" />
        </mxCell>
        <mxCell id="Lv1oq39Oq0ErjtgaDXQU-23" value="" style="rounded=1;whiteSpace=wrap;html=1;" vertex="1" parent="1">
          <mxGeometry x="515" y="290" width="140" height="170" as="geometry" />
        </mxCell>
        <mxCell id="3kWTCwj-a79-4w6-zaF0-11" value="" style="rounded=1;whiteSpace=wrap;html=1;" parent="1" vertex="1">
          <mxGeometry x="280" y="-1.25" width="140" height="170" as="geometry" />
        </mxCell>
        <mxCell id="3kWTCwj-a79-4w6-zaF0-8" value="" style="rounded=1;whiteSpace=wrap;html=1;" parent="1" vertex="1">
          <mxGeometry x="10" y="37.5" width="140" height="92.5" as="geometry" />
        </mxCell>
        <mxCell id="3kWTCwj-a79-4w6-zaF0-3" value="" style="verticalLabelPosition=bottom;html=1;verticalAlign=top;align=center;strokeColor=#d79b00;fillColor=#FF8000;shape=mxgraph.azure.git_repository;" parent="1" vertex="1">
          <mxGeometry x="370" y="7.5" width="40" height="42.5" as="geometry" />
        </mxCell>
        <mxCell id="3kWTCwj-a79-4w6-zaF0-4" value="" style="verticalLabelPosition=bottom;html=1;verticalAlign=top;align=center;strokeColor=none;fillColor=#00BEF2;shape=mxgraph.azure.computer;pointerEvents=1;" parent="1" vertex="1">
          <mxGeometry x="20" y="67.5" width="50" height="45" as="geometry" />
        </mxCell>
        <mxCell id="3kWTCwj-a79-4w6-zaF0-5" value="Developers" style="text;html=1;align=center;verticalAlign=middle;whiteSpace=wrap;rounded=0;" parent="1" vertex="1">
          <mxGeometry x="55" y="37.5" width="60" height="30" as="geometry" />
        </mxCell>
        <mxCell id="3kWTCwj-a79-4w6-zaF0-7" value="Code Repository" style="text;html=1;align=center;verticalAlign=middle;whiteSpace=wrap;rounded=0;fontStyle=1" parent="1" vertex="1">
          <mxGeometry x="300" y="13.75" width="60" height="30" as="geometry" />
        </mxCell>
        <mxCell id="3kWTCwj-a79-4w6-zaF0-9" value="" style="verticalLabelPosition=bottom;html=1;verticalAlign=top;align=center;strokeColor=none;fillColor=#00BEF2;shape=mxgraph.azure.laptop;pointerEvents=1;" parent="1" vertex="1">
          <mxGeometry x="90" y="75" width="50" height="30" as="geometry" />
        </mxCell>
        <mxCell id="3kWTCwj-a79-4w6-zaF0-12" value="" style="endArrow=classic;html=1;rounded=0;exitX=1;exitY=0.5;exitDx=0;exitDy=0;entryX=0;entryY=0.5;entryDx=0;entryDy=0;" parent="1" source="3kWTCwj-a79-4w6-zaF0-8" target="3kWTCwj-a79-4w6-zaF0-11" edge="1">
          <mxGeometry width="50" height="50" relative="1" as="geometry">
            <mxPoint x="400" y="330" as="sourcePoint" />
            <mxPoint x="450" y="280" as="targetPoint" />
          </mxGeometry>
        </mxCell>
        <mxCell id="3kWTCwj-a79-4w6-zaF0-13" value="Commit changes" style="text;html=1;align=center;verticalAlign=middle;whiteSpace=wrap;rounded=0;" parent="1" vertex="1">
          <mxGeometry x="160" y="57.2" width="100" height="30" as="geometry" />
        </mxCell>
        <mxCell id="zgI8u6kXj7jp2DeS_D1K-1" value="" style="shape=image;verticalLabelPosition=bottom;verticalAlign=top;imageAspect=0;aspect=fixed;image=data:image/png,iVBORw0KGgoAAAANSUhEUgAAAgAAAAIACAMAAADDpiTIAAADAFBMVEVMaXG2z+vveEq50/G20Oy3z+vtcEjueErveErvd0vueEr2ekbvdUm40u7veEq1z+v0dEnveErueEq2z+nueErveEm2z+vvdknueEq30Ou2z+rvdEm3z+vveErudUnud0rvdkrueEnL4OG20Ovvd0q50fK30ezveErveErA4P+3z+q2z+rtcUrvdUnveEq2z+u2z+rveEm2z+vrdknwdknuckrudErveEn+cT7vdEnydkjteEq2z+u30Ou30Ou2z+u50+u3z+ntbUpMaXG30OvqZUq30eu30O3sbEm3z+u30OrpZErteErveEq3z+rud0m2z+nqZkq20ezyc0XteErqZkq2z+nveErqZErpZEq1z+vVpJ/bbETvd0rpZErxcEbpY0meh4K1z+vXlY3veErn9fnR6fH///+3z+vpZErrbkbtckoAAAD1rYftdEnteErudkrqZ0rj9Pfl9fja7vTW7PPh8fe40evra0rd7/X1+/3A1+3O4vLT6vHw+fvvdkrU5/Pf8fa91e3q9vntb0rG3O/5/f7a6/X9///m8/fS5fG70+v7/f7D2u/J3vDL4PHs9/rf8PbtgmztckjtgVbR5+/+8vDR4efufE/W09H61s7thVrqjmnX6fPT3eH84tz1r54IBQTseWP2vrDuimDkgGzynHn//Pvs7e3tcEbzp5fra1Hymonqb1f4y8ETERAjIiL1qIP+9vXjpo3yl2/vi3bgr5vcv7LscEbatq32+PnodF7cqZ71tajYzcnW293GZD3Rzc3nmHfj8fdVVVXjj3nV2NmLi4v96ubrfGf3xbnsc1euq6rZysTZwLzS5enpd17Vw8ElEgtwcHD5z8fknYDsrZhRKRn/+fnbxLrU4ujseGHfnZDo3dfoa1Di4uL97upDQ0Obm5vloYb73NalUzMyJiLqwa90OyTglYbftqbAv8DteEyUSi2DQiikpKS91etlZWXTnZHwk4Dpz8M2NjayYD/vpobDtcO+xdU9KiK5ubmXh4HDw8P1rI/ecEU7nch/AAAAZHRSTlMA8NQQNHgggcJAygxLIPD+Fqih97xv2lOvb7gqidw6jzBmA2KWCi5F4geWq2N2iefie8L6Nj+dWwhsJemfPEvQF9RZAFXeRCmJyID55bb97evMWxH37Wizfr14G/7RrhKa24PLJcBrwQAAAAlwSFlzAAALEwAACxMBAJqcGAAAIABJREFUeNrsvQt0nNWVJtpuO8zcSXyrZ3zHM7jpnr5mTA927sTX6qzbSfMwFI8AfasNq2ERViadxf1VqlIJ/VWSypLwsSW1sa2ysQuDC//gBwhsh2swb4yIIY0hMY8J+QOBBFaSIg/SCemTxHn186a565yzzzl7n79UVbIku0quX7JUKpVcUp199tn729/+9u/EW9dpff1O6yVoGUDrahlA62oZQOtqGUDrahnAaXGtvPz8yy645JqzrzvzhiuvvOHM686+5pILLjj/nJUtA5jVqz7vkutuXLpsxUWrUvZKxBIxdUt8SsxZuGLZeTeeecm8lS0DmD3XvLPPWrZieSIll7pfLXYMPqTMl9IEYgn5L5FKpZavWHbWdfNaBtDU15LzrzvvwgVia5vFhr2Olh57gBj+pvQQF5535vlLWgbQhNc51513kVx6veIxu9wxvPLYA0hLoW/iWrhs9vqC2WgASy64ctEcsuFj9XmAVMQDwF2JVGrOihsvmNsygMa/LjjrIrzJY9PhAdRpkEqlLlp6wZKWATTuNf+6RQvcTR7xAP3H12zYVmRs8+bh4T179mzas2d4ePNmxti2DWuOb4l4AMeQEgsWnTm/ZQCNeF229CIVxpslJx7g+NYNbPOewe09vdWvkcE9m9m2rccjLkD/T7FEauHSy1oG0FjX+UtX6Yw+5niA4xvYcN/q3klfq/uG2YbjrgeIKfQgtWrp+S0DaJTr8huXJ+TWJwsVS/VvLQ5v6umd2tU3XNzaTzyAdgjLbzynZQANcO7fcGFKYTwp7AG2bNg82Dtt1+DmDX+Nlh+ApFTqog/NbxnAqbwWX7IoEU3j/nrb8Pbeab9WDxf/mgaY0iAWXbK4ZQCnyvWftSoRi9E8LrV18wwsvr62b97qJpSJ1Kqz5rcM4BSgPWevIMCO+Lhl2/CLvTN89ezZtiWCKK04e0nLAE7uyX/WHATkyY9bipt6T9K1qbglhpJNcc1pVjfQlAZw2aIE2oBy75+81Tc24FQTY8suaxnASfH9110US5ANeNJXn/gBFIRedN25LQOY4WvuWXOcos6GPb2n7NqzwSkhzblxbssAZvA698o5KXL2b2Ejvaf0GmFbaGFxzg1LWgYwU1n/dR+LpXARb+ue3ga49mzFv1Mqtfy6xS0DmInrkoWkPtdf3N7bINf2Yj8uGCQWXtIygOmP/C8kadeWzT29DXS9yI5jTCJxxfktA5he0G9RLIHSrjXDvQ13Da8h1INll7cMYNquleclMKtnw6behrw2bUCoZCqxdGXLAKYn8b9yQQLRuDcM9jbsNbjBRgKx1JwPLWkZwHSE/jjI3ra9t6GvwQ24SLD87JYBTPE650KcZTf68suUYBuGBa44p2UAU/H+Z+EWnmZYfmsCEAwkbjy3ZQAnnPotR+SLNYO9TXMNrkGwwMLzWwZwgrG/buETBZ/h3qa6hrdYWCBx3tyWAUz+ugZ18faznt4mu3pYv4EFEh+7oGUAkz39lyF2/7bVvU14jWxAnKHzzm0ZwKSC/+W27LNlU2+TXnu2GBtOLLy8ZQD1Xx9KJEz2t62nt2mv1dtsFLvgupYB1Bv9rbACDs27/QEetnXCxKK5LQOoK/lbpdp8xLYp9vQ2+fXiNgMJxJaf3zKA2teN1vs3+/YHJ7DFQFmJM1sGUOOau8iWVDe82DsrrtW2myS17NyWAVS7Ll9ugv/+uqGf9tvW3Xzb+kY2gc0W0rhofssAJr4ukYVfuVeO1wv8t9/cIa9bb2tkbPi4ZY1e1jKACa7FZyVMA26x3pd2/a0d+rq5vYGBQRMLJmIfahlA5eN/hWm53VI33Xf9aIe9bm5oVKjfAIPLlrQMIHrNX2j6fdbUX/fd2IGvOk6BntUjg4N9+Xx+7dq1yVKpVEqWksm1a/P5fF/fyMjIDKad243cSOrClS0DcK95c0y+PAnsbx1Z/45bqxwCPSOD+fzaEr2SpWTJvSufH5wZO+jZYELB5Ze3DMAN/0yUNJnC7yg1gI51lcsyg2blk+QqyXd6F1xr84PT33S0WcvQpRac3zIACv7rvbFlUrwPZ/2jUcDqvnwSL72z+x0PIO/AD5xuK9jUb2LBa1oGYMP/8wxSsnVSld/1VQ1A73u92+HAN7tfv0Xv0j+kfcE0gkJrjMLQjS0DgGvJIoP+bCv0Ts0A2s3Ot4tv97bd8Wj9XY8gTULcnbRWsLZv9fQHAue1DECt/xUG/GeTfTkrxwAjeezz9YLiHV9y76D3EevQRpCfptOAaY2h/mWLWwYQj8+9yPB+J9/su9ExgNvk6iflqqFtTdfb/TIZ8QnYOLQvkAnCtNjAsPEBi5a0DGDlQh0WbTmBo9ZNA0fySbSYka0+8duEj8SmMF1+YFO/dgJXLDndDWD+cl38O35CrH/iAkb7wPVb9x19Y5X/2S+iHoAcHqVS35RRgkEtNJa6cO7pbQCXG+rv1hN7VQkUvD5y2ldaeX0//Wy+cuwg4hCECawdnJ5kQHQNrDydDeCcORoZ2Vpv7X/dzbeObrzZYr7rrQ9on/AgZ3QNGbmTRR+SrOgMStZkSqX81NzAi2sMKLjy9DWA+au00OuGOtO/2zZGIL/2daoeuC4/8eLjFWRJvc/p6pOtzypZTpLGA/kpZYY9a3QcsHDu6WoAK5cb5m+d639zJchnJL92e6GvYiDP7GZmsMJhUv6DbyeTobSHUN/Aa86Syeo2sHYqJlAwgMCFS05PA5i7UBf/60z/Uem/o2NUL/9ahPRG3b5c+HA4ZMMhC/MsZHnxSXwxrL8eho/iQUw+UPsDnQBOZAal0tqRKVkAxAErzj0dDWDJhVpvefOkmD+k9CuWnwC9FQLA5DDLs3yYZ3n9Oczbe0J5I6TfYcPCPhhe+4qpY3JqJlA0eMDi088Azl2hq7+bJ7/9IQroyZdwuheN95nZ+fmiXFjxWbypO8KiXH9pGWGeMfUN83U+hHODpIwUJZxaOLjNcEVPPwNYpPN/NtnTX3sAsfw2kzMZGzNHAUsOm21fhHWFFZd35O3i65WXZsCMbxCHhzwhtDegNqCKyVMxgW2nvC5wqgxgmf7Lt9Xl/jdG1n90sDRB1i+TdXXGyy2udn2oHACTC2vcAFPf0R/AT5hH5o01sGQFaMEiA30nXBrSucCVp5cBnGUUv+qJ/28bjax/x7pSBVCfwYrAmV7Mmw1ezCMHH9LFzuuv0YlgbUKZQ8j0eTABXHiC0FBhq2ZCXHM6GcDZBv8rTD76U1d+gsBMRv2wzVlodnke3WR5HRaoR+VNaGC/NiZkbCc/LDJFFRNEgoETzwl71sBeSFxw+hjABTEAANfUcXiu31hp/QdLE6F9STj5Q7OP7TqC99cnfRGZQZjHkUAxj0+OvA4jh1U4EEEK1cGTPyFaes9x3T58zuliAPMWwP6vY/3bK7n/jo19pWTl1WehelOHvfH16oY96NFt6//1uWB8gT0GjEMRRpB00UVjjCeUEq7WTSOr5p8eBnD5HHB6W1afSPTf0THaTnN+FKEnk3mWV048FDdCs64hY/akzzN86tudXiQZgokXivoryCVCwAgiwcCJ5QPb+3VZYO7pYABzl0MBoH/7iUT/HR3r1pacnB+2vloZGfqrNStaV16EICBErt/mAeSf+QltB/D/WdhI3ap0EpRKJ+IEBsEFJK44HQxgBXT/9Q9OHvwR3n+7Q9/TjB2T1edNEBiaHW8TgaJFhTQ8EKLU0ASDofMlhpFC/TTJKGHghJzAHq2HsHT2G8CNWvyndu//+tEK3p+wdxgkfQzQGuO4UQiP97NJB4p2yWF3w94PTXyAnAID+MA6CIUhRrGh0gk6gc2ACCYume0GcJkmgNVu/7itwvbPl0oOTSvJLIZvj3wcwhfl1/oeRmJC6yFUmMfAT4RwmpiwIGQQCdrMQVWWWJRiWsqfAFMUfMCCy2e3AcyHALAOALhC+Lc+WXJdrq7v6QAttEB/JMp3jnmG1hNuoCCB5RnCCJmuFenIEL5mw0nLMEF+YPLHgCoNJmILl8xmAzj3wroBoJsr5X6lSLE/qWE7vTBwwEeOdIa/Ynbbh/bIJ1YUorzQ+fk8s8AC+IGkGwwOnigckFo0iw3AdABtqUkA2zhB8E8CLgZ+OrR7FOd6IYr/zBGPU0DGbCZg9j8+GazfYHmSQlhvocwuEgyW8oXJJ4MKEbxh9hrA2boDaHDS6d/oi87pzyDyt1gvw+m82e3MRnJwZ4iPdoIGmgyBoEb2TduHqR0bWoGtFpq3tT0nmAokzp+tBjB/QZ0BYHT9N+ZLSZJzJVUEZvczs+e13aVFtG+LzgozjP+H0WOE2Xjf+o8i5AM6jNQWBLgAJZ9ONhsoQiqwfMnsNIDFF4ICRK0KcPutFd1/iZT8k7ZqX9RRPobx7brTnM4CADvl5UD/KM43BwdDKUKok03tXYoIfXBOqMkGAoU1p4AccBIN4EaYqLSmMFn4Z32pREleSf2iw24MnbMc+wJ7YBeNaw/veu2Zwy/sb7vjgzs+aGsT77tfeOLwO0f32mjB/E/GQEJsJcyEBUWDHSQjmMAkA4HVehjxJbPRAOaB/GstBDiy/qPbSxbwAwegi/S6tOec86jGb+5jCh449s7hF3a1BW28rY23jcPVPf5B5wd3fNDd1rb7iZ8cNekkYYpQXJnRexgz6QAJBCYJC24ClGTOytlnAEv09I/hScJ/t/bRpgxTyUXOntZ1MOuPpILHnn5rV5tY/EC8Bdz3O8fFm3hX1x3CI7TtPnw0ZKHJI6LVRFJK1EmBSgccLzDJUJABT27F7DOA86AEuGGS5//Na53Kvw7VQmZZfdjlk/Rde4KQ5Y8e3t0WtAWBWHxxZTnnvt/d2Tku3zvho/AHbW3dbS8cfs0JEUkF0bnBJOAokSHsBcStnsmHAbFU7MzZZgCXaAWYnsmt/zqn9MMYzviLuHwX5kO36Gc26NEndsHGx5fn+b4PFmDexoUd3HHHHW1tO37wTljMU1KB5QzoIwhcBQIMndLApJhC2/WA1MtnlwHMXaU4QDVKQJH8b51b+dXLHUI+HzJ8CNhEAN9x9Ildcu+rVR9SHwPx5nvc592dnRntB5QTkLeEI2jb8cRR7FUMhdDCBRhS1oUoNsywE5hUOjgM3TJXzC4DOA8cQHGSeg+0rS9kzHJ08g5aH+aZE6vJJQuf3k32fjZQay8MwQs87kkLwCYwri1hfPyObt62++mQpBk4ucDZgQEJwnw4bI+BSQMCW0Et9czZZADnA+PheGFS67/ebfbRhBxL8CM1Hxbi4F+s1c7DO9q4dfxi5bNi6YfETc49X5gA9zuVCWBHAAfCHd1tbbt+stNQgWx4UUSpAgsxT0A6AY0NyvfBSeaCJzETOCkGsFhnAIOTYv8WnNN/GFE5GUrGcb0fVwLDvU+0tanVz4rlHgrUCaA8QDYQQYBcf84hDFRWMN5pvYA6CoLDGBC0/QQYdAAbkO8szA+ThHBkkpBw7KRVhU6KAZyViNWhARVdf4L8hxaFcwEfEgLYdPDwXwaBjfrEskvvL6MA6QXE9g98L/B9Pg7bX5sB9gLj4218xzOoHshCRBczLUZF8+uF0gMM4/rAZORPdNvwJbPFAC6H3octhUnI/XS86CL/Ou4qItJOhPNnS4HP7GoLrOMXyz7EgyGwBWkP3BNr74l3zu0pkJGrj4MC6QX2vUPqCxRpCAkfQXwSv8oJ+oDVICH0sbmzxAAujKk/aNNkun/aqf9HPTwOkxOKeSElgb2+G5y/OvbVgqu9r5ZffeF5ygv4EhPqxB4gYgLBC0dxeEFRIRY6KIGKD9DfMAkL0PMlls4OA7gulajdBegCgDj+SzJS5I1EAfKWqdeK92MvtNmwT38cgtxPnwDCPjxf5AG+zAX0/s9YI8iYYECeA20/2EmOfmNwxPUw24WCkeHJ4AF69PC82WAAc+cobKsqBOQCQLeR8z8kfD+nkQMcL8oGwp8E2vvb5VcugMMtMITAUzGADAO6kQfIaGDQ+AEBFLcFwU8wCoijD7eWCGcWAgRK9WOCg1o7ZDYYwFKQgdwziQRwneX+JJnt0Y2uPu7z1B7gLun9A5nwy7RfmcAQuADpCrg+ASAG0D5gXCUBKCXQjkAmBG28bd9dTsFYGQPmlpjf1vEBk0CFQU00cV3zG8A5CYVub51EAkA6f5MMsz1D0u8XRjD6Yv5pAfplBdRvznod9HGIBAN1AIh/nskEuMfvQAufId5ApwPKCeAGMrXyAE6ihhNDHUG5wNr6q8PAEFy1pOkN4ArIardX6/9z6j/k+Lc9/aGL/Ts7USxH+JYK/uRygwcQO1+d+gABKhhI/IMYQLwLG7CbHi++DQYEOBi0vRVignHRtAk4MIHWm7HVwUnwAzYBe3ppsxvANXXoQDkB4Ma1OAHAPf3mlLX9PIxWAI7uM7kfN+Ee115gCG4FJhe0u9/jPkCCKBvEB0FGw0Oc77qLUspCxCLEagNF+NWHDSpYv5DEVsUMSFze3AawZBXoAPfUHQDcmielv+iritv3CNWfhU/jzD8wYb/c94GO/jj2AJ4vnYAXyMMAAKFIEECwofG2tuAdxBIMaXtR0VEfkH7AGHTdoPB26BNY0dwGcFaqdgR4syv94uA/Ie3Qo926mPQfPtEWGNzH5AAW+BsykKCBB0waIN8C38+Av88gWHAcuQBlAZw/wWwdsEjbi3AeYCoIJhKoOxkECbHYJc1sAHMXKAewpv4OsBdJz0802GMhQ1EApvzsfIHr6I7rwJ/rcM/4gSE+pM8FiQP4fiDXXr4LTHi8Ewf/mQrg0Pj4HbzthZ14/6M+A9s7hJvNk5NOBXq2gJhwMxvAWTArb7DuAOC2Eu77wKm/NoY8c8h5sAx7d7dp/2/gPpPv60jAHgpwyxOHQKDOAd9UBiNpwDhGB5QT2HWX43+Y04VsCeiKKTTZVGD4pIgHzagBrAQHUKw7APhCpOkPB9Y64CakAJ3979CLLz8aR6CMAaqBQ6gwLL/n+X4gVl46AC6cAM8Q95/pxEgAcgK8bcddjs/HN2lvgjyztJhd3yTxwIXNawBLIQJYXW8AYBMA1e9fqcnTAYXhMUd3qPB/yHp56wBsYGDCP+0XlP9XMYA4AwRR1EkEMi46AMhwsOOuImoXxf6IMVd7RlIEkpNjCG06GS7gd2bUAcRqOQA69Wm0D0v9YKYvwf6jff/sNUH5yZJ4X5/1cK+9YSBhUQ+W6y5PgUClA4InihKBzgzNBmwwKH0AzUtImci2HGskS3Pb68aEt4ILWNykBrAUMKAqDuBWpwJo9X3donvR6dwl9Lx39Pa38b5B/OCOIZwSWHhYwkBcBgC+ygdkFJBxQkDqFPQpwHccpdgEC3FYEjLbhibgLMMQqDcM2JRIJWKJVOrs5jSA+Ymag8BvdhBAvf+HWVh0tHrCvFuKt1TA1wLC9eGG9DcUoMyPo2wAviOz/8DkALImwHn3eCdZ+HEUEnZ22kKR8AFHiT/CYUmRyhMqzugkwwBAg5YvbkoDWKoGJPa/WGcGcOtaS/1n+bzt1KaFF4eMwfLsaNAGNT7Y7GqX73vywIEDB57cp+kg+gHWDQypRFBnAQoW9BQapN7QwiN0YByw4XEeBEdD2knMQswRsrilLg6qMGB1vVGAmjJ5djMawNwFNYnAGx3tR4P/mSMUejMp6YfGgDL+h5jfnP88++RjN8H12JOBNo9sMITfFCFALr9aemkIuDDsgsGd2CzGRRyway8JUkLKEaIKJUASEr3jhcm4gNRFzWgAV0Ir4It1ksAsAhAywu0jrHyHEhAytlfE/zqm10nAjgM3meuxmx7boZGfIfRP08JMDMBlVUDYwTic8ygOyKCEQOeFwgL47jBkeadn0HoEq1cEVgJhQN+kXEDqsuYzgMVzVIcLq/MA2KhHcwwzJM/HAPojEQHxADt3cR3RBabpY8djauWNDezTKAABiMSbjv0CFQXIXIBnMmTJxzvx19YDdHbK4iBqDMFQYLRPUXaPgpmvnoQLiM0gQ3jGDOC6hPIAq+sc+bdHw/9GjcuUgRj1qEgKJGT53W2BAn7EisKHHdb96xs79IJzSwtWFqHqQb7xBBIZoLueVIQIPjje2c2Dw2He6U81UjNYb1SHLGAChbpdwIx2is2YASysNQ5gncMBVPtfya7Qqho5R+mX7AdcZ/U2AQyQ/9dG8Fhg6QDmuJBpoHABgRdw2SMCuBDX8Z7j83X4hwsD3UHbO1SHkLSmFEn/kviLwAX01c8MiaUS5zWbAVwAvYDb64MAbkXHPyr2O1Ke5HWVXz7dFmjOPzcZ4JN086vryawhBpjqgLqpXICuCSgT6Ca8UFMMIMeCxgQ550cjqmSoW5U5WnU6DFhdZ0VAuoAFK5vMABapDHbCZvB26gC26/1vqFRW2B+2EYmzITq4i1usx3iA7GPu9pefKTXIVAsDCAI4QIHKBvw70DJXOAcyqJXsDh7sCklbsm0brUhigqJAfZlAYYuC065sLgM4BxhNE5YB20cjJMBkyXb7EJnvfOjodenUMNzdFmQ161/6d/Fxn1n3x7AV7DNxgmYDQCDomUKAKgnJMLAbrXImShKllSHOnyCdIWF0FAkhMcEcsvoOAaZcwKrmMoClMBCgPgxwdE8S9j8zOIrD/S5SCQD1oj5hqP+63CscwJM3VbyeRA2iplsQXIDCAoAVolxA53glKKAzQhYQeFA2aHvNBH42EqQixUxrDptUoL6aQE+/cgHXNJMBLFmgyhh76nMAqgaQDCMSz2Elvo3ZXEcDXfod0r2f4vMB4v3NeXAAzoCsRQFNDOCDEQTGBPxx6+YxM2DcloP0ESFdwK6dtG8hjCQthDfIJgEGFJULWNFMBnCdyl2O1+cANlrhvyIZ3lJ0iqpU0jHcpZeQa/q/NIIDkQBQWYLpD1ZQIVSNdQxgYkBJDNJo4Hinyw3KGEwgY2pGAg14wrFaFrpKU0iEUvuAulzAiIICZogeOjMGcEWqejcwxYC2GwKQA6lVkP9EsnCHQejH0H9hix9AyR/yAY8ZHlAW4IBAfaGJoRD+QXWQd447DkDlgJ1RTGC8czzL+WthZAyJVY9hoSNZpnxAvk4wSO6ns5rHAC4HJsPqujAgVQTEExxdgk1U9r+YD+/itr1DsQCACnigwu4XRwCUAsBdaLaAjAE4lAQFIYBLZhDnaInHSQkAsURNjjgetO121IlCJ2PF1axQu4C6uCF7lAuYs7hpDGBpDUGw9RWKQEj0y0ZTRAcAke7ERwEBKr6/zuogxH+SIkAmBjB8ANwfpHEA3zQJ6uOg2+YAlfY99QCd3ZwfZpGOMdrFBG3M4lTQLmBtXZkgMCuvaRYDWAKawJvqkgJZp/u/nM2CxTqjIz7Cn9il1wxwIP/tq4QD3XTTvsAyRTliC6jNH3iIGOpxyQ+ekA2COogzkAuMcx7sxZ6fTaRdCNENIILb6wsDZRCwolkM4GyFAUyoB0EjANUHEmn5c149qw2oXMNOqf2DC4CW+fvYTY9VcAKWBGQIQkYpSNGCAl0VDsRB4EeDgCg0bO/t5vwtNGCmSNhBmC9YtOMrk3WWBLbDnPX5TWIAai74xCHgzREhOMKoIyw7PLcNSXGwt3iAiruBJf9z7j15UwUf8KQ5/VUVyFAFufX8XLsBiQm5LUIaEra0YawoIsCAoxS/MjCm1RFECsOACA7WWxOMpVI3NocBrIQywOp6MIDRtU4HMEHRis5wT/PqHmuTfT1E8UGzgYaCx9wA8LGbHgs8DgmAbRmBbEAve2DRAO77/A5cB+isxBFGQaIEA3YTyN9iAU47u1ExlTMPCvUXBBY2hwGcCVNh6ioD3mY6QCZQACDDns3hujuwUB7e/YriscMcAsYUdnkQ99tIQHOHLSnQA7EABQj70fOfsEM6CRYgU8F3wshSh3g6sZG1RIhgXS4A0MBzmsIArlAOYEJR6AoOYJhV6vosOrRgG16/3hZYx5+15SAg+nr7HELITfs80f/J7d7nSDdKMwICH8QCuEwKslFasO0VcbIDYAnvYqR4SZOZYlTbWPqAegxgm3IBNzaDAcxXKGCqpx4HoCMARuIjOu6xSO6Tt/c5PeCmJUAyff3A2/EYPgIe2yUie6CL6rpRVmcD4PkDWQ1QNSEZBnB3j9u60LhDFVV4YDZoe6dC33LRGWWBhAbrdgEABSxvBgO4QYUAW+viAfShHBDP8FReshjmQ9p9pz68Y5qAAyT8ZLFAsZt3P4biP1ntQ93hBA9QzGCx8L5iBvoQEdoOEYQBjpvNT12AjAKC3WFk0BBuEkQ8Jz1sKFlXFNCjoIDYvCYwgCuqjwUgzcDrtAiQPioJal6RaSk+7Eb4L9F/1so/QgI02HfgwGOPHTiwT8wFEAuKReJs2gDMYBUDKFIQpAGkJKwTP7rk4BUyJgoIjuIBNQoKptQmhqXEwuF6J8tsU0HAWY1vAPOBCdBTTw44qCMAVDANMas+ZESWTd0+ahUgSQqo/bsUgPSkR+dC+gXKvEg1wCgHQXcIEMIVJQASQjlLAIuFuVwQFyGQicBbeigN7hcvkrEWZNKIEA5YW9cZIE/W5Y1vAB+qngOQHHCjqgG4x2YxUlLF8z3z4QuG36f7/IwemAoCAx/QPF8ldAra0fVfrRk3pN2GTP24RYB84IXQepDLBXGaByUcmA3adgKjyYwppOFMSNpdYf7wSF1wsNxY8xreAFZUzwHWRcqAYUUE3T1GEbFuZ1ugc35d38MFwawWAQ98+0F6dxsE6moAOAXIApQXUKqBKg2ILrXtEDKhoTYBpR90OLTF/yi2jbtI4bQbTibzdZ4BqRlghk23AcxNVM8BcB3wVhn/sZCRGlp09q9RClQv5eEAdQDZVl+wAokF+jqch5xeYvxDJg/U1BGjEqE8gEEDfJ0GWFLYuJUQJp4gQ/Cg8Szfp3N82hEQEkwAh4SsPmrQHlVgu6LRDeAVq9CwAAAgAElEQVSSVNUcYH2ECh4a6r8z55NFBoCBM91tOOAcCUEpRMA2fYP+m4rpVWzHdetAMGTaAlQcYFWCVH8QHCLjnZ3jEwEBaOltB5HAAl5zBxnQSVPMmTwnlSPqoAb1wFjRuQ1uAOeJslUqweoJAfPQB0AGPaFXpkhr6tAp+EWJARokX6eAKDMEqr+PED6IAXSigBgBuhqkC8GBFg8NPEUNriAhjCHBcRQFiDCw7QdWvqRY+XTDIsf1l4S2zsxIwek2gFXKAwzWgQLebGaAhXh3VD46Lbv2iTZF69MePKvX1UwDCaDPB8nAigUGUwkwgQiSQs9ywmVfiIohtXKooxuZ6RzPdEajQtUr1B0EYaSOaafMFiuB3CxZj5T45pmZKjrNBiDp4IlUfz2SoCMiAijqVgA7mi902u1DJAOeD8OANPnC5s+i21zr/QC3x1MYr37QECEQyX+eh6pBvqGH8wzqBIoe/ogfaCHCcdkn5CLAmAxkUgHDfknWxQ0bVFtrVWMbwIcUdWFbHSHgaEkSgYvOlHdnRB8j3kCggG1k+pehA2lxKK5nAUHfvw+YAEdS4dwSiHQJOYC+UBUxqiMB5olRaRic90WShPHOTj94ixIbABQwtHCn5MGUfFQdYeAW5QLOaWgDWCHVLSeigxMQ4LakygEqyH7iwd14LJe4460AxX6GFJi1t4d4gGJA7dtNQ5jVDUGgsD33tR+Q50c3wfosDSRj0OGMCxWMd/MdIYvSWsxBwEKqIxcqEcm+uhJB4QJuaGQDWJKKJVKx/tiLdYAAfaVSkpIAikQLnAzttl6BqMEZPDgg5EAeGCRAhgDis50UM4TTAdUs5HmaFBZA3CClAvxK0tGZTtoaQC5JDjwaopnmpEEYtzXY9rc6a4J7lAdY1MgGcFlChgBr6sgBNioiMCWBMtr9yQyabpCA17ASJCoJ2TBAjQGwkJ4q8yF1iKwtCZk0UD1WuQuoBnoe0ALHOyuyQjKd1AeMa9kYyQ7FwyzpmBMWaXth9Z0BPcoDLFjcwAZwZSqW6J+4H2CUzoQzo6DofGbE/8VeVL10hzmigdkwDof4Uv/TDAIxhX4cONoIErAjDzIHBQZrDXHfEQZDmF+UHaIzBJ/vrjTFPFIgRpMmhA+o4wxYo1zAvAY2ANUTPNF0KJID5JUDQE3ATh8Nq9QlJlAgHbgRLXBuKR54EIg8033pAaxIMK4DQAwoHYDCg7hnoAA+3lmBDYYSAA0NWjlpqRdQoeoTRiSuimiwTFjXGVBUSMCZDWwACxRe2VPXCVCyUtpYVs1WBCkPRI0DUu3Aqg5g4QAzG0jPijCFAKMApVqHbWOwnSlkZgdBk7BnagiWGGyEgjPUIDKuCxjv7PaC10IW4YYVsYoIlj/VuiE99QYByxrXAOZV7wnGVJD1SeaQvVhYQQKo6MwKey0wyZxdcW52MnQHShdghf885AECFAfYnMCznSFGLcgPOB+vmOkR5QAqJWqCANolVinVoWXBevKA1TOBBEyrAZypfNS2OuoAfTIFwNyICIu+GAXQZT+gieHMQCAzCcq0/+mM3jK+rY6gJhJyO0HCKgXJLADaAz1egf4T4QTQLCEjKoIvhETahooaOYp3ugJSzxkASMDlDWUA596wbGEqtXDZh5bE48uqkoHWEUkYlieOP6Ks4nKClQd4gYSAWYsFoBK/Uf8LrAysh4YG2eZwPD1Mpo1cFw+5SgkynQ4HMBPhBOjuINtCyvkOyAIiEYAzao6hKej15AEblAs4c+mij6XmXHjeJY1gAOcsBEHg/uXzdCFgdW0Y8DZZBVB6Ce4QOMZcLqXOqll+B9c5PxoJakVAsf6j9gE6D4SHc9xQZN6gEujZs8BX3WHjiBWacYSDKGnY9BD4nO9FlABi1k5AwMxLEA7XkQfABIEEDGJLLVt5yg3gAlh+CQBDQ8CWOpLAwZIJ9COjwB2xHTwU4BhC8Kw4iC0I6kMdavu23Scg0HHWtBRaHEDJxcrpAb5nWsQzlTgh4xXVgoxldAu9EFoNdAYch474tSoI5OsrByjOrXrRPzb/FBvAyjmKrApKVuo321BHEqjnQVZU/3KGBCDZ8NfR3M9gCOtAW51AxQtWSI6t8lpBgCEzSmjIdgirQyAwwCFED7gWhMdKZyoSxOCrbp//hFkAgBGNmKKjKG4homSpdk24P2Wv2PSMFp2SASxeFjMeQBUBqvQE4hDg5qQ7gZdK67IIG0yZxWFu534OkRlgVgzecLwCgPZ8GwOAilBgoQQLHfumdmAyCP+O8YlWmTiAcSIeIDWjyClPp8u5XgE8QT3jpdeklAA37LjpAAWmZADzYfm1R4pJgfhNtVGAdjEPkHJBLJnW0VvMI8HNJ1BjB5oFa3AdOwrIqD6png/Ps1LySFMuIHqREgf0DZUoEGJxOL7PUGmYCuwQFQv4wQuMtoIw5AmKiPNs2h7EWx2J4Da928y+u/CUGsBlqRiKAWIwJXykNgowKLtBwwrTlxml04VFUhTejadCWDAA5XPcaMAbHMhXxWADFgbWiMzXujUQMgAtFtNNSX+dFcs/GVQmlLGh37YPzwyMQsAhc5rfVE1wbR2kkJh5g9d8yak0gDMdDyBv9teBAoAkjJ2vidVzSEZIJ7Xv0ouXtd4/a1v+zLB47plJYFAXsIPEzYP5EFIY0QBQYOuBdpgwzQR0vh+dNa89gB/QiQakUxDrIDA7UEi4gJqJ4CbYY9YDTBkUmJIB3JAiMYC0g8TWukIAczS6GmCoC8Q6BvCXoWnqRorveAaMoQVrvTeB5shSwBCaGYbPCp0GQK7o+b6pBwocYNztBqpUBM5QzrjMA0k+U4xOPCi6Pe+iHjBSuyCIPYD8PO9UGsCHoh5gwgERN1M6MMtjSUhGOqpZxZ7QYr64F8/9xJxgMxw4MJOA1FaWcJAo7CFBEG4/WOlgNDNItwUoUmCGtIBmojSQDGUJZWQacBcRjMSpDh2CRrhPrHYQsMWNAVKn2AAiHiA2EQ5IQwB61jMSAISIOldEwsB5KQ08hNqBLLMPoYBZPQbCsDxFCJBFraRaI5C0E0JHgB+gMNDvxnl/lCE+XrlJoJvzL4YE9nMnnjmRDoSDdSABWyMxQON5gMHaMNDaUjJ0qPNUCAZT57TgDmP513iWB078PsSHhrxsdogMCeRI8kum90YUIIt0gtENjR7b8FGOD7mD5P1YIbqz85aBgc4B4vp1OajbF0oRbs+by3t1cE7xR9auCBabwAP01IwBNyo6sAuQkTZK20VjO4PCp/H0P6/7js7O3EAul8ulc/ISzXlZ5RdMo5evEjt9bAwhNuCQpQUGQALgmBgsSIERieDOzoGBci6dLqfTaf2pPDCAi0GiGvCMVQmKAoK4URgpBoTJ2gryw43vAfpr44DroBKopTRZhfHg1DEoa/jJW0LYUb79v525XFpdOfmeVl8KM7jDy6qp0Pbysln5o+qjUhhF7+KN/gBcbsQ3YJ5VP6H+lC6jONHnbzlSlxgFLNp5QiHuiGf5sGYUuKlxPYA2zDW1xwO0l/Juv1cxX2EkkBst7wKYb1ysfk69+mT59YIM3GHJ/YrnV/OquP5AC5ZKkGL10/o54enL+reA5x8w9cB9dHCgFQ2jU1DoMBxWOwgYaXwPsKF2ErC6JEdDUx0dhk/HYnRscDHM7xItAdnxHNmCOfNPr4v8N5D1fTsSTgf9dGocnR/nGRKBfes2giADsOJ2x5tP5bS9ytJafCEWhLsZQpZnFQYg0+Qnz/I1oaBC43uAYu0koE9Bn0g4meR/QAR2GoPCfHF34HV35ux6p40fcFyAujfjaz4YQoDwG5oyJGMA7pGOQqkRcoty/XbX20XPoScVvqAMpjfe6bftypN+Jrff3YoIkhpoHaSQVMN7gOHaSYDqCLQ8P1oPCIsupVJ31OzupB43Z/Zk2XUByj5uySo6iKUCw2AhoxJj6UW4J8A0Ffoy4h/I2QMfb3f9q+TSNDAY6A52YVE4hjPCMNr5YDKCOtKA/obPAjbVkQSYlsAKGiB2IjAdFc7CZ/A2LBt/XEY+uYy+lqbQrYR/OBocacnDWC7EC7TfR02FMgYYyDnO3qx62TxhDpmC+NS5y2GzKT9muwKp/qV2gHU0ifY3vAfYXjsJ0C2B5DDEo7cdcFh+edf+q3IVd6G7Ce0jpHlkBRkgQOivRROzVjNGFQM8wQ3kqKmwu7OzTI/+HPI55Crjs6FcPkqGiLsoIHNEEEzhs69OWmADxwCFmpWAdkYLfmT6Oovqqcgvn72qnEOLnzOb0J4DsAY5eyrL27d4RkYSgEL9hcEBhUGozN/zjSeQMlEDaHkdO8u5ZxCJDsu/DPGQEDruzpkmZBxDHVjglkb3AFtqJwEvlpAEdNGFxMMKgnrs2P4PzAmr16FME/Kyc9M8NJcznGDUE0xFpkFUIID6oREJsYGmXuWytcKy+9wkPcntv4ue9BO5AhMDire1ve2150g2dAxwvLYB9OUZxvjCaPsPoygx+2rZWf4yysPJ91BOiBx3t4AA7bgQQx/FWqOKEyTrh7oskLH/ZS5y6uSo1eWM2zFffvC0i3JEpYOokHCYXNtec5Bog3uANbUZwfkS7Z+v1ACC20XDXw5clbNnOz19j9z+1O3fOkRzAnoyiyXp9ExDCWoIAu8PAwS1SISvB4kP5NJku+s0Q95RPnTf7U/dft+hMnIPJFXIpdNXvR+GToM4+aOtCLb6pvjc09vkHmBDbRggSVQfQkce2NXbD8P9lcC+8kPPvXr3PXdqsYmX73713qdyKFovU4ywM0v1xIhooGoug9qxVg31czm8r+35/uCvnnv4ve+av+bOex5+7qFD6EiwXqF81f4wrEwLYhF/IDPj2nngmkb3ANtqwgCjIAzkYMC6JSDEE7iFKqCM/qlPv+/g3R2jHWTuiPjy8TcPHkq70Rj81ICPeKRDWDDSnAWmhCziP55Lk+gONv59z90z2uE8s3jqe+5/JU2MVHmM8v6dUVoQkgdgpCIoTsbB2rTQxvYAEwCBGAZgEfofkQZiqIyeZ3u/ls6RI7h8+/33dEx0jb796lNpBBeUrRMYyAaIMoRbiSA41NJi0gXwHE0m1XM/dDdde3K995CNSszv+5mv7XUG4On6NpUS08aRHGx2D8AqRjHtDh+swhxIoqdlMqe9Rz4gWV3u9jerrIFaiKfKabobVeiY87jmAFoA0AwSNx5AuYFctNzw4ME7azzznfceIliE/Okje8G1OSoI2Adg6nCNNKDhPcBwTSBwHXPH6lVCzNWXO79GQ+77Hu6oeY12vPcrXLDX0E26k9sho0gsTKcHUAAQHYI8hwp+avsfOnhnHU8tTYDCAp/ZvxPNQyEaQcypFEpSUHuTe4A9NYHA9UncHxfSdhl7Skre+P7P4Bfz0P23dtR1jb55XzqCDqbTA3jnB9w0B0CHoaflAfxc2sUTHnp5tL5n/u5DaVI0zqXT+2l1w0n/i0QZn+WbPQbYVBMI7KXSYIw5mT96tb5cRmf5oec+31H/9RwKAHX8mBO5gFUJDbDUCM9Cd1Dg8wHrwNVPv3L3aP3P/N4rCI0U/8VVX2ZELTwkw4QJbTCs2RvQ8B6gtgEUkqFTCYFW2ghs8ssBdBC/8t2OSV33vFJ29rEoD+rJYbaXzKoMcogBbiHpZjqdPvj4pJ757YMWkZD/rnoWVwMxEyA6G3Fts8cAm2rygXos+kUYoKHbOvt62RzCufTtd3ZM8nr7YDpHcEHxVRYBAWZwmBYKkggA79auG9bw0JuTfeaON4/gZDSXu+o1zIDG7c4OLhgmk7PfA6wu2fDXqf6R1tm9GNb71eMdk79eTSPUHg5m3wgMBFhjRHxUc2N9B/W97+UTeObvfkvFnpCP5A7tZa5wuNMFabKE2RkD4FLASJ5F1NOZM0iBiQAQ1dgf+vwJrELH6JtpjNXL1ehEXCBdIwSSgCKP5RC9p5zOTfbk0RnhK6RS9cH+kEw/ZIQfhAsftaDAJvUAxABKzKXJu4N2xSskAwDYQQdHR09oGToexmiO+pix6F9g5WZNd9AtNHmY/MmjLeB2Wpt8lg6PDCs3w4csPzLrPUBfPjoolA7aFfZwrGzx9191nPD1JqrUQDjgDSFxEW4FpmQMyDHZLJd+5c4TfubHXyFI5Ad76RgJ2/tMDSI5Mus9wGApjLK/3RI5228yuPTtb4+euAU8jNF5uRkHOJk0gmYQiwogSh3T6fu+e+JP3HHnfaQq8WXmpAF0qIT5w0eqpwEN7wH6ahnAaB+jXTLMGbQrc4RnyiaNPzKVVegYvd8WBiEO7Day4oghxDn3PcEAQLnj1J6547tHcqiUeNXTDgcKtT6h/tDTwAP0JSnhtxg6xBlxxwcmey+/1zG161dpyuZM57hVFQjsHLFgyPOAaQYk47un+Mx3Y0JJ7ggRisdwACoSsnxfs3qAaqTg9soxgMMAQTDQM5aD9/AUV6Hj8SOEtSlcANIKGcIjBDIYNyofnOozj96LoagPnsEUaBZpfVJ31RKLa9JawM2OPEyRztZz9BOL4RHzwt1761SXoePuCGvY45xoTOjmINJrdHvH1K9XNH9InijGzYX5kDKGkVR6X5PHAHtqeoAR5ggjkD5KeSY+YzK3+z4/9VUYPYjI+2WIAkhfmMoGvAym+pXvmQYDuAeTCK96Hc+Mo63v2i00vwcYrt0ZmCQc4AgmxPLF/WYfPjw6Dcvw+CFaFcgN+I7WlKKFItJRLn3vdDxzx0FLTsnl9odOb3hIhomo+/JN7gFqG0CP5UaERcKHgWG74eumDjMdbrijY/Rh2zCoPvt2YhzXBUKvO40aQI+8PS1P/fYRTCk/WmGQgDEJmB0y+z1AIWk4v6wCNzBfzL9vtuvd07INOzput1xNub7CBdhKAAweuAWHCQ9PzxN3vIo7mb7NqHJwGBFKZE3vATbX9gBEEgjRZDQQtNNUgZ6aplXQcJA5A3Io+tc6wz4inqWPfH6anlm5APA8h8KQYc9XzLvNEWGyr725PUBtA2gvOcofDMuDCBDoKl3DrR2HHf3KSy/9/LdfqPWwzx9BnZuqaZQj5WD5uRtD9/fXsbZ/89tjX6j9qOdwV9FXGe4DKOaLUWnEviavBbCa5eD1jKpmOHURlt+v+Ti1agDvfmmsS12/+bsaD70fk3TKoiiIw0BxS6DApnxzqEYEMHrXL/62q2usq+vRL9V65scftDDUVV92pbCRNCIMDxps8higWNMAbksaIQgMhJm68M4PdOJUA4l7SS+/uH5RfTPe6Wp5UIUAUQzOoT6SWhjQ1+1Tj/3igeqPfQgVI8tFon/JkDpyEcaHNTsOsKG2B6CKAIzIhIT54ldN6abqNvzCl/D6d3X97btVt+yvSFdfLu1rYjDoh/vduOGzOvz8wG/wU489+jc1AGGkJ3QUsWFRX4itCCVHmjwG2FqHPAAZE+n0zRbzv9Qb5qGqKcD36Pp3dT36bo26MOnnvsXXbFCAAW6xPX25+6o+8wOPdpHnHnvkrmqPHz2Stk3tz9K5QZYkbBKjkd6qLqDhPcCamgZwM4uQgLE4bOlr+sR8tboTdg2g6zdVT4FDtHd0QA8Y06XAHCoEPldtPb/wt+4T17C9g4hhsJ+Z+Qdh0WmHUBFRszOCttQhFY73OwHFxc29pg+vWiPOXV0VrpdqFQWRiETOo2ODvBwqGlc9Ab5e4Zm/V8cZoA4CZ2ggVkVTf3+z8wEq60Ti1rBRKg/EGIXHXtdbsSoI8L1KBvDIAzXyANTJL4MAO1BY1gH0SX2omkd/t9Izj1XLBd4uWx2r9FEsIFqMNow3PSt4AokY/JLm80Q4hZLl2bO6bFPND787VmkZur5fsy5j5CVzGc9MGRK+4A4EEz00WQfQ1fWlakXLp5Bq1dNaHo/l8ZgE2xnU0+R8gAlmxqHXZ3TEYQGTciD7tj6Lq9Gxv99VeRmqBgE6D1QLnUFKAdnAG0CVgqoo0KOVn7pa/HGvVTRJP+tOEsyz0EABAglseg8wWFMhpDdJu0GJOGh+PzDqc6OT3oZdj9aoB1gXUE4PmGZheRklUIE/VHnqByo/c9dvq/cnGP/yfhhRDLEjhcRbDQP464b3ALUJAeuZDXrd2aF5BqIr6W9Vi8S/VHkVHqkKyFBZ4QGOBgiIJCBnWsGq+J5bj1Z+5rGfV+sWRM3m+wkx2KpiaEyklgE0vEZQHcWAdcmQ7nyWLzLQzi6GWnvrqdHJxoBdXV0120Wt6l/O163BkARYDm+1QtBXKkcfVTOQO1Gr4CHmyGKxPBJOZ0IosL25dQJrYsGjG5kJ/YtoXDyAIvqVqloImMADjFXzGq8SWfl0zrPD5rnnW2Gh9H3Vnvm3E5je92thEGB+HzA6MozMzWRhrb6QxtcJnAALxkjQaNLyYXB3vJQP3qmPy4Md0xwD3O0IiQr1QCMTZT1ArjoL5a4JDOAr1RzWfVZdLLeTSgcjNpDcCbUNoDnnBawnQACBAHDfbD7cq0/ie6stw89PIAt4D8n7inX2UH+wx1E7eFUD+MIER0BVLPApxDQ5hmehulGwyAKbXSt4Sx2TowkvjiplHdOvVNVc7IHKy1AtEut42RH1zvpofIyHZk9Up6F8b2zSvqfjV6bOUE4fzTMsge8OSqllAKmG9wATzAzCQEmvw4qxxZGweEx38VXnZFUKAsYeqVoMeNy0CKm1yHoGBwYPAM6hugH8S8Xg46WaFWEdfhy1w9FIP7wyhZoDA1LNOjVsIy0HMacz3uyGvXWVgipDgd+v3qmF1lgsRbfvGVII91H/cA0m6m8q5Z/V2QgPlW27wReTDClih7RFIqyVBa5ugqlhNVtDRjeacRGYEqXigJ36mK5Byvr5JOHYjo6XHdk37nEzdlJlAQAS3VeDDFTB9v6uvu408e8uOzUZcaI1JFJLLn5TE8wNZLXTgHweiYPQPrkQpgKkn6tBCH4pUg2u3aRhxH/FSnA5UVi3hqMG4iM1/qOvREGAGu1LT6HJRscYjn2KeIBqMR/W4AP1bm4CD7ChdkF4xCWCW33YpKZv31uL7P9zysr4Uq0esrsd5TcxSUbLxXocKYI/WOuZXTDopTpY6ebaCf6ekQmJEBQP14oBtzWBBzheOw24zemTxxohh64q18EHkoxgFAk++vO6GPp4whSX8yTBCEgxqKYqxFFcEXrkX2r+pg8av5NLl1io+wOZaQ0LbRJQgxHWBB5ggjQAR4HrKkgD6nBoPzDzazcFjd569OuPqNP/K3WwuO9No0kTuXQu8LROsJCHGkD5Qa2G9NGO0Ze0CTzy9drU8O+iBPSIWvaQ0WHiTKgi5etIAprAA0yQBtxMsUAWGacFx+L7epnqa7x44Ohv361bJ6CMxNwHfM8DhRChFD2AAsRX6+g2+/y7//L9l77/lXdHR2u3kNyNZEe+XNJxf+jEAJAEVPUA21ONPzdwovbAdTQKDPMs2iEnFDKe1Zp+U5PnqITHEvG+gcDTnCCBA9yCBH3urfN/vLVO+dj7UU/CtxluBnaHBtSKAfc0hQco1o4CeyNDdEwm/NXp7s4zOFAujYZNpjMyCdATpb1u1Dz21DSb3kNl+7TPlMjEeDo8j9WKAVlTeICttWdG3Ow0hSG1zLv0Pjw4vavwMJJtU0iwZ+ZFCUggZ0OE3NvT+9RHUE/C66QZwh0aUCsG3NAUHqC/UDMKHF2Lt0CIhDJZqA/qV6Z3FQ5iWnhZtAZ5nu4MFRKBuIv37ml95pcR+FDemcRioSG1flEKaq9VDG4kD3BDJAuQpjBYOwjoKdIRseZFGU5+We+WO2cgBLAxIFfLD7UA3y/bvqHyvdP6zPej4GN/0pEFIPoItdggq1MN5gHOdj1ArAopiAQB68J8ZFSgkogdflZv1PuncxXuccb/3sJlFqCLAZ53C9KTvW9aDeApNFj228kkqzAkPbQqodUsYDgV9QDzT6UBzHM9QKra5DAcBIzi6aHMEkNYPnlUx+m3T+MijN7rjHbMBKAUpURiPZ7FMOF70/jU382hMVKvY4U0Z1hyPqyx/r3bqAcQH1fFT6UBLI4liAdI1D09dHQwjOJA6uUoGZ2el6dvFT5/CAnA5xQO6CHJcC/wjXxAeXoD0OdQX3J5Z3KYITqY7QqU8kC1QoA1KNKCl3zRqTWAs1IkC1i2UNnC9ppBgJwb4vTGKVgsWfqy3qfTeBS/SaaMl9MDvvIAwAnzdBAADzoyjQbwCqKh7E8yx+sX0SSRWiFATyrqAc4/pQYQj1+EPcCCy8+LJVKJeiZHdYzaqRlUMo4Nf1VDdocen75zmM4VT2eEBwALUIwQL5NDYi7TF388jBxL+plkklWYkEtCgIltYBNJtuTtsxafYgO4fLmNAVbNk1HhxNMjb410CFqlHLUrFFnODF97brpW4W4sESRlwsSQWFCIELUg4Q9QZ8D0aQQJrUg7gjR0SOEMswKS1ZdfwEBOFjD1A2DKBhBfcl4CPMB5c+Pxc9TNv64dBHSsp6oAzKYF4beNqNLb0+cAyHjpB9V0SDsxSAyLGsCz6afLBTycQ3PG3y8lSfnXmZJewwHItrBUKnXNheABFpwZP/UGEI+ff+OKVGrFjeowmqNcwPbapJCNjMzNsIKpTOUBuWmMAt7EErBiNbrleBg0MUgMi+NoRmHuyPQcP5+/D4kP5l6XiW6FscFwAlR3AC+qdU8sjl+y9KLEnEVnzo83hAGQa1mqSj2IcAI6Row0AFHPFAWh/UZXa1oSASEXjUb4pHNlX3gAL7CDYzwv8GFYQD19CXVf9+IZpvtLSaqLRIcFyEJAFRsYVu510fSu2DQbwNnVukNoInhbnhk4kMxTT5ZeN4jdtGABB8lQ55woBIEHMDGgGBfDM2TE0HRoBb9s592X0+mnlQNgIVJHt1B4rROgfYN6bc9saANYCTIRhZpnQEfHWlwNxJOzkqX9JnGahrP4vbQzf146AF/DAPJdDRkX+lMAACAASURBVIwq4wdORy3idjS3Ln2EASG4cmt0n1r/CS2goHpCUvMb2gDiF1abG9E+SuoBebcaCJT5ZPKrJmWbumj34/8TH8MSBVQOIBsolWDwAGJgSM4OKsxNwyFwL1Gp/2oyxHPR8dAUTQesFgIMqld2YbyxDeBGZabFOvKAjSHe/1Y+OM+SKgpQY1unmgn8CmWA6mThcv973A4OVx7AE0Oj0fXmNLiesn7P7WclhuaikxZhBQO2Vz0DmEr/pp75z6wBnF+VGUrOgNE+xpzpMXk4AkpHbc720NRrcUgkVjYE+L4OATQjSHoA7nOrJZdL5w5NLQS98wiZQPlaMnR6oYgN9NUIATUOfFmDe4D4nGpoMM0D1uVNY7gNiIVDHE6W3re7Z0qu+FV7+OuB8mKpRdAXoLlh4AHs1DAlUjGlqWGvGAYSYABJ1BLgDk5jPbD87dVLwQsWN7oBLKvWHuKcAcgj2hkKwgUkS3vL1htPARB8s4x1OqUNiAnhngKCjVKw9ADibr9M0oUpzA2E2aGmAnEs6SYAZnagNIga69+7Wb2uy+KNbgDXJKp0iTt5QG+eEZlMGxQlk88it33CFvCwMz48nc496MsjIAAPoNCgrBodLyeH2oLBVCzgzttzSJBIiEMlk8OhMx8ROQFdB5jQALYqz3p2wxvAkgXVwEBSD5BhIEOFEf0uXIBMBTWGeoKnwMM5JAwHzcGiDChWm5sJ4kohwhMFIW6ZQRA4nOAp8N1XaOq5P0wOO3OSMRk61JXg9ipkIAkDzm14A4gvUiSByrQgWhMebWfOzEiZIOXVIXAI4bcHR6cW/xk4Jit3v0wCgiGNBMm5weIeURbOYVn5dPpbJzg93Laii49/IzGAkLTCI0ywqEPAwkQmsHlGYMAZMYBrFF1tgjOAQAEdG/N51B2ubkitmGRJ4IFoMz41aV/8+EEE/+sqEEAAMgnIQjFQtgeLwcGeTAQy5uHKcxyafDZ49yFbV5TX60lGyl2IDqi+7umtEQNADnBdExjAEsUSmugMIGHgaC+mh1umjCgIlEQYoJV10rlDk6Tq3vMt5/zPSSagwgB8mQRwXQyUiaD0CgIPvCVN6GPp9MHJFYbePohrT+Iv+HZSVQGKFSRBlFSgOgEmDgIgB5j+E2AGDCC+SBUrWT1h4EY7N4c0CIUiCmBfxpN80wcnAwk9h+Z/mIps2VeIn6/4QCAUqEIA6QHkBHk+YPF7ZQevTIYj+N4raZp6pr9cSiatFm4FICAcMYvfXjUHmP4TYCYM4GzlASY4A2gYqFwAHqBim8RKpZ37LY0vl05/q+51uOd2JMpiyOAiAPDlLvdUY2CWD2m10EDd60sfMIDJQ+K5c/fWa3xv35tD08lUALhTOACtBmpCHiwXCjBwYUILUAqxM3ACzIQBzE0owtJgPWGgpQdTnrQMA5I7X6Eu/GBdMfmd9+Z03I8lwnPy8JcZv685wXpwtCdTQ/1diwaYeOCV+iKBN18hVSfx78jOZDKpukEjuqiABvT11jgBtisHMAMnwEwYQHyRcgHb6gkDhQvArIgi7H/wAXuPqDXQ5eHcr+6uRdZ67yFE/TKJZLqc4yoB8GXCh1UCFSfIg+/IZDBnf1Bv5m89VysUuPO5r5mo1eSRR/YmS9IBYP4TpYTne9AJUNECisoBrIg3hwGcrYKA/p56wsBR5pTGTFGwlCwl2d4jzlZM3/dclYTg8ftfQWIvGALOyWWX5zwHGAiiAKUQEXg6EhRugNvyAeISPFTtDLr7oTISG9TPf2RvqZRkw4wCHrT8kYf9P2EWWOhXHuDsJjGAc+coFzBclwtYT8dn2yHCMhMQcQDJysSSPPRwRRu4882HyJphSK/sK/iPq40uPIBqCVAjAwQWqPJAT7LDhAXkrKaYmQB833OVy9PvPXdfDh1VBgPcv1ecZEncEBoiC1D39fQaC6gcAwxDHWBJkxhAfKniik8UBjougA6OtpoRCg2QFoA2FizwKwdfffNlE5m9/fLdrx4U82ER+pZLo3RuwJcIsB9YDwCjY1WDaFZWh2RNIPBlROCXI65EmcGhXz338HvWAL/73sPP/eqQiVRzxARk/GfUMCwZgMxMJBFAe2UYWF5L481iAOcAV3yCMHA97dq6GSYIhowM0zY+IHw/TZIBtMcfPPLKU0+98rUH0yRWLCMgT31+UAoCCZxHIf6qGAT6IDA7PNBQkC+MhXveQI6oC1OFofSh+25/6vb7DqVzOEi1EKJ8f79UEudYkuWZ2waLuIHABSxM6AG2AxF8XtMYQPwKFQUU63EBHaN9tDaK+UFJ+QI+Q87zctrd5uSAIOuhIoduGf2r4M84ALX3hwJABOXqB/Lb6lGcZ/CBksPPTFc9Z2fD4m+Wv6p+e6aVAYn3R6ogNgSsHAMUlQO4KN48BnCd6lyYoEmwdz1F9kdDtz6OxknKF/HYETL3M+didVj8JZ1zHlAW9X4uU3wdAgASaCiBQiFAu4AAigVCSriMDoEy8QXW3bsuwIyGOMbk/pcpQD5qAZoG1WNPgAmOgC0zBgLMmAGcu0BBAcP1RQG9RDvZbg8oCiRZcuezOMFCsp7umzUCvV1v8WHpA8D6Ak83BsLml6xADwIEeUhAwcDnt0RDuzSuLeQIYogYYOlnS7D8KstheFAkTnnyNdd/WBUCZyQEnCkDiC9VQcDx3noSAdEoSAYoKPEMxmSpKCnj6NKx98kRUMkFlF3wT57+qtQrUV6BAkCoL/Y/qIUrNxB48A0ZAATAEOJ8ANWGEayAWIY595bg/+yF5VcQQJ5RKYSiAT10BNArvH+hogmoKTEzEwLOmAGcA+2Lm+qKApRwYB73zhdBUTxk8mUsJUvsi0fQdjSifjlU7KdHgBwT7wvQV0d4GgoMPKMRaIZIA0ZgP8IN3l3Gk2ZQRGChiRzNVNP3HS3h/V90+V+6GqyYQCb+r5wFbIJm0HOaygDiKxKxiUcJR11AD6mS2jlaIRSGpBHs+p/lHAZZyO0o9J8rZzgH2E/Gd7Cr5VcezAw2vGBRDfBUpQAKBhAvcD9D4SDianI4LlW/yiHOSyX4nZMsJBwgPC5ag4C4EFTBAhQVKLYi3lwGcBm4gAmKwrQiIATErYC66ZlWshnD+rUs7faDTGQTojOYBICi9MPtma+cvwUCuZkdDhNkTTkQforEC91lSixwDwIcJGZ8vgN+46RsBNJjgi3cYbtC8nAATJwDQBlg2tnAM20A8YWJap3iTlGwY3QdYssgIEDBQ2ACu7nPg+xAmdTq0hXjgPIA9zX0D0c73tWaEKiQgEAzQ31PFwvV1vfhLAh8nz9Izp8y7ja3p3/uQVFw9Pfp8z8JZT8c2JKGwB6z/wtwBLRHZGGkA7go3mwGcE2qmnKwywsYlbphtFgOgzVYPoSX8wWuanWZMo4Cy5jxp32/wnJ86wMU59dTfECoBQ7ZkTGSFEaKhQoR8CFzFOBQtkyHDjmqQ+lcmUO+uRvc/zBMQjKC0CGteOaBCVYFCO4BB3BN0xnA4uVV+eFUNxCPkjKwoH2plA9I/sCHM90LugfKaZqYmQ8DnEMyz/WJrvezAAMNI8wWg3RJGFAg9VjPRAyBr+/k2QdzLsoM/ij3oLRN9cQvqO2PBwMwFkG7NBEIvUXTAKb20fLFTWcA8TPVrz5RTTCCBt1Mhohg/hT4gNIT6gCXS+H7PHPLg7ky0t/I5cq3ZLg57FFQz+EsF3sbbgb6/Ic8MABSEDyD5wdceQLVMgTW4cunHSgTtHmgfEsm62ufI9zOW6oCwPA0CDIjDmxBzYiTG78AkYDjAnr6Z6Ql+KQYwJI5NVyAkwqO3qbS/2KoewX06ov9M8ySycOKtAFb0udiiYT3zvCMdOmwCDqL17V/uZ3hLIdgUOkDBUNaIwKQANkcAM/ge55pILCxgH5an2ezGZ7JqqdVrj8wD35COoBhVxCG0AFCNScYbfz2CoQgcABzzm1CA1h8I7iAF+uLA+VY8SIdrQtlNHEzWUoehoDOt/G5euMKudMwvnYBNgnQZ7n6BE0hWil6SJ4GkAbYZ0Dnv7ltawryWbl+RvysvucfFgEAkICwDSBNKNEW2duLuMAVY4AXwQFcGW9CA4jPreUCbnPVHKOyYWaqloAEnwHmLvd8vCfN1jOblZMAQO5mHx3pujWUGzbA0JASC0S+w/forrY3zH0GL9TJhXpW7h9WAQCeCwuRAHgAmeSO9JAycKECElScQSLAzBtAHFxAanV9h8Do6LpKZyWgw2Ey+bRvz2m0p83W861zICm99AEeOtLVtKhAa8VDb1BgCkWQD6jqgfIl3NCJjfFxQzA2qQb82DNq/7N8GJ2JYPSw8iYBtNvfQQJWg/7aDDqAGTUA7QKKvfXhgR2jvUYz2NWOEve95qv2HRKf462nwX5D7rM+QK+hIn2pYSFKKFwDAkooCO95GVNoX8IRn4jUC9CzwC3vHVEBQFJAzE7FsqynkV5bBiq0V2SFgjTsnCVNagDxK2u5gHXuIdCH+4SNjL50o8PJL9IzWq9qgDe+3fO+Z5IAHMbrJFAPCzEewFBC6MYGL+KhbADVC3xVRrY+QDyx/5oZAUNHo2He40hvpArgxgAaBPxQvFkNYO4cpRw6IRzoZgK6Y1z6AUbGyrI8uysw9Xp7JkOsb7eg9tG6tOfTMB7ebVcg1IOUWKAFECyFWHzigU92OnI4vvsd3/9ikoVOA2jkMOhxEaBCpCIMIOCMOoCZNQDhAqrMkRJbwEGER/MMi4UYfqA8Fv5G9+74JBA0Gxz7AvsVx2G8rvXDsJCszAWgLBB44GC4h4N+IJFarhD2Lzbv4AZw4P4x5QAAygQpYJPVhBgDtkWACA4weDIcwAwbwJI51WbKV8gERvswLRCj6OJ1ExifRfVRBsCRNVgcyHcy+cA3vG8DApg4gJu2wcD8mN3pOt2zeQVCHHxSQfACf2/IdBsYwoAwL9ASQQsoE6BAoOoGiq06t4kNIH4DWPGeCV3AuiggbJ0mmSbEklzJOChU34bkGLYPPPoVd8J4GQJoNgCMDQSJAK6BAPNjgad3OliF8TfcfMf4CRtmcAgBijShQaywPgwB6FzAOQD2pGYaBDwZBnDuchUGbinUFwaMJrGavkqYDYd6eIcCcwHV5/bURzm+hfzUV0HFd8gAlUAQYAFygwcqEQz0cW68ABwBKOrwfOcOH0hHXIUAIcKzirQbjPIAUQJg48ACMAFnrgpwUgxAFAWrjJGJhAG9jMzTxO3UxTzb50Exh+OQnHsItrfwYPRAsCHAkJ4VgCuCHjDGJTPEIo2BbyhFgbWIQLcREKKRMotdZipiMaIGJ70CqgEpv1+IdgYxeOEuiDe3AcSvAO3QCVNBXBXauDZJRJRNPUC+euFuDmc/Buhtgm4+ewatM5GCPcolLKS7AYxSmKoIo1wfXImHzgU47D0Pw8bcqRYEvr9bz4YNyXAAQwfqQzWgdpoFmDNgdf/MEoFOngGck6iBBqFAcKMVCmGUJipvDr+AKn0o3LenNvcDQwKD7e7jxF2TPqAbwMyMAiDINy3CEEeI/9ELNI0QNjq3vt/4AOQAfL7bYj/MchzMH5KnAQAFAdotBiT7gS9vegOInwdo0ODEFrBecQNu7u3RRXRaFAL/Gb7F7d4mkT/aiJ7p/oI7OU7cAUcQ/UDo8DdpYGAQBBNH6FNHgpAUTPBtHODj0sRbTvEfq+EWlSp4O7WAAjYFPRxEvC2NN70BLF4JsmHHC1WEcNevW7duXW9v70geIBTbQmFhlOQTfkD3v+70AdK/rxmgtHJnOgI9mwTY5nDFBpBQILh4EkeAqBjQimGXm0MBjMYkHOIX5D8IiRQY1oVmIWKBqQ8F9EXBRoDymjO3+Q1AoEGqT4hVn4ur/va+PBUOYwwdoE+gA933EVhn3LuNEQDB01m9WkLj31EEwA1DXHcHabMSW15NFrAdQ7bqCOaEag4B/CpPIPVjhAeqL/p6SDN4O/0CXADQAGY6BTxJBrBkeQ2GMDaCnnze6AWiaECZwGGf1PkJ6S/ABWIfdr9mAqmNqzevx236P8RtEOgBlu9hTggnrQIqTuCmvcz3LCao60T8sKt0oDjOFAFC5T9sCe24CHBRfFYYQPwyGHG0preOq8fSKImojvj3k8D3XYaOcfp2I4Lsp8bqKR4QgECYXfgh7QICiADBVgJDENMNA7bqqLrITXHKOB0Zg/wkZITijFTQcB9Au0MGKRgLAAwwMW+WGIAeJDNhqyA5B0byiAyERXXC/NO+w9ABAl/A8UZU/3yL1ft4WX2kE28dgLQEgwP42hDM2W9cADyXDCV8eTsgxADP5/xpFqlmMCcAwNBfpDFoODWDegCnxAB0VXBidhgOBEaooiJqpXsHH+827KcbESXmNh4Q9TzP7llbCgyGKDUcb2tjMJgH4HmaCuRrdcnAg+gTnu0dTAZkKAXQw4HbHRyIngUaAvjYklljAHqU0ESzhKKBIBUO0/vnNbsZNUPHtz2/HGE3PmIHQrSuUT4lD6TFQYa47Q80C2o8QEBCR+kA1MnimYTTNw0FEBnw7FHNBQydNKDHZQEW2ivEAGtOEgZ4Mg0gviJR3yGgnOCIwlFQH52ygLs44gDZLN/2dCDaj88pQYAb/A4FgYFNB5VYnD3ZsWfRtsVNm7F6ahwKIgjpiwypQCNIMMoBao/2BbZDBhBbFp9NBjB/QS1mADaA3r6QbH79Ih7zfQ9zgID0r4MwUv/zoiQhDntbHf9ZbQOgGRxA3xE8GvN8DOZgWUPYAUBYosNRfgx3AFlBoJHeaCMovi1toqBZAHNWzioDiN8AYMDxnrosYAQfARpWze/k4JR9W6nTWB1O1M1N8Zi/R6CBXrohHQRKE8iaTnHPknv04w2srD1/QKBAmyB4yr68gO9leDqojmf73ApwQZ/92Bv0bAEM8Oz47DKA+AoAA7bVXP12mQwivQDTMx4aGoDN7/Fep/U/OJh//DwC6kEeyDSGAR8oAFKoj2A9bpYWM5ADz7NCU9gVGfsK2kTXL6y9DQJG8PFfcDyADQVhOGBiUXy2GcBKkQlU5Yb0Esn0Pkc8UvKsd/DoEqvDnvB0TR1APOZnb9wfkKxBC4VraQCjFxp4+jSBgQIQA+CuAhVMBJJtGNjSNEYgAtkVrjiNxhXke3or+P2CWxMahlhp+dxZZwDxC2D29ZbtVbMAkw33FVEoDZSQXb5HiwAW7sN1OVP8Ew/6Wdd37tZAkYYBeGCZgIoXoqZHYm0Q+eA25WgwAxnkhD1KQDRlCN/fF+YJqyHMawpQ9MhHRiA+b1edQInYvPjsMwAlHykAwUINCwAfMIKxQAWo7TZUD83CMWe2KQm6XQE/7fq7z7/qWdRWzgweMkxAoxUWDBmnb3CDHb9skw3FKn4k2YApAxhWgn763YwqQQitI1nwUn9agdT+8YfewnFAzK6Mz0YDWHwRxDfbqh8B2gf09CFZNRVI7fYNaZMbXp6mBXs45jdNZMFPu37e0fGqqQQQD5C1tWApFYcchwR8nv6KjgFQfmApgapVWXMRISjgLwhTDbHqUZ+2afznkdVXbgACgNSK+Kw0gPjlC4AcMlzLBUBVdIRo6rK8JAR4CHf30Z7VXEFuuwIki/eHYy99vqPjYW5yfJ3321xAoQBZ7jm5xL2f//mQp5tCkGYIQh6U1anWAcgYXqCax0VKAbXHXMGeBep7m2GDnKwM8KQbgAQEq5FD8MuifEBIimrsLZH2cd+yNgPE/ocgnnQO+h5/vusXUslfp23YA5iakCoH0hiA39TR8f8NedBZiOnGOKL0jT9SIaTPf+BoHo84/B9IAN2KQKEP9n/igvhsNQDBDpLXlp6qR4Clxo0gViAL809wrou0ZgkwDG97em3f3me6fiNJh/fs8wDY5WZQSGCIoQoJ0DKBsuH3sY6Ojr/fofIAEBoxQKSPlce4rhlKs1F0AFsOGOnBAEDB7QU2VrF6C2QAN8ZnrwGce6FychPLx6GzEUWC2g0chjgNIXLqMMagvykSqyO6rasLZgkcgDNjyDaEmgBAmkKAq4FPvt3RMfpTX0uLaIURzEHC9ATdVqjpALoE0OP+WSjVwWTgApQAYivis9gA4vOhLjghPQg8pM0FetB83fxhLjcdQeQsMYMbCM/jOiYPPD429ls9SDgQP6T7gTQlSACBkiEoqgEmsj8gtOgf+GHASduBJRd5Pu0NArJBwPlP8ETAkR58ABTaeyO9wBDyFE86AnBKDCB+mYoDYxXxIPMaoeJ4Tw9qqn6GI6k/XfwPuG3+Uce0jRRF0vdG10uadvzyATQy1HICtVyQdRvBv8o2lZ//vU7zaY+h1h62MYNVFuBPhxH+R8XCj97+8jaMBUstmBef3QYQvxGKApUDQZsj2Uigx7aLPW1k3XE+5pEewcDDTIHA87459qjtPHh1l9n3hhNoe4SBFBjsgiGFv3heE/+cHkMfigDcqg8aSso7hsTW1xOJa3AnGJBAxff6YP/PkCR4IxmAKQr0b58QCSYxs7QAeE3fCWwBxtZiaI+gqcspYoDv/6yr6xiaKnSv1gUb4igGkK4Aikr8SRgIcuujbdzqhuEew8DGH6YtAWqB/DUduI44x38BVr7Qa5VBVAIwCFpA/efFZ78BzF0OFMGKhUFHLwOygREQC/ui1nEIEGGHKAPg5nAIB3/Y1fV13H/48mNZQwrmUAwEXyA3+a6H9SP/bszTmz2gtGMfpSAc4gMRXQhv9EXgAoy4eU1F+E986IEEIHbRktPAAOKXLwA0YGthoiQQsaRteZjlw7tUD2+AqTuo8I+pf0ZIhD/f1fUIbUJ/+V8NKTggOiGe7+24386l+8U/6+YCS0Ti6JlMvwFgDsoDHCva8B85/gLC/wrkKCgcB4DsYyvjp4MBxC9TSuKxxLYKDgADQVgzp09sq2OKu2kJGwoARAI9Zg64Len6Y11d3x91x8vt0xgAlIOUE9h3PxoO+MDYNz3PYku6MRCCAG7RX3A1oDywV4SsfbS4ZZUAqSyI/N7WhGIBLjgnfnoYQPy6FEyVYhMVA0nv9HoZCIywfLhTbFfExaCMH5gHhzk7ImEf+tuusUcqTXo7EOjGMBkRZJ/8VzoX8OtjP3M6DHyrRaZGz9luUu19uFQH6OmN+n/C/pZeQCGC2xJQArwgfroYQHyp8AGyW6g9ygptRxUzLJnSk2eh9QCkO9dH8oCBTsmhb8TzftzVNfbSrZXG/b189/333vTYgQMHDtx0/93uLMJ3x8Z+GNiGMIwzwqHv4fDA18oDIZoCQHd7VBKqvbd9m04AzoyfPgagJoyLP3tzNAgoVI6chBNI7uCg5uajZgBM2w0sXUc3cPg/7OrqGjvWMclr9HtdXR8oaRDLQPDdqN+n4YHH+a68E/2bM7/Q7pYAett7t/XDgXhe/HQygCUXQipQyQJo3IQDgZ5dXIbqHsfNAD6mCFkY0OCzn+nq6ur6zWQN4KWxrjd8YJzCR1QXNG7G8pSh0rRvxKlrFvCSF5xCQDGR6Jc7YdHi08oA4iuX68rgZhoDVkAC2g2bone3IGjJ1dBT/nyHvYsp3Zo5+IawgK9Pbv8fHevq+qYZNkX6jI0SgGcPCBMRei84hX+nEYR2BrJEQrwMidiFS+KnlwHE538Mch/CDjClsoIroqXs4Emd8UMnrunjxBowWiZAn88iCOjqEryQ+q8HHhnr6vopx1mlphqg4gNHakQcEIkDkTCfxgG4HLg5AQjQRXPjp5sBxOevAv4DsgDClaHyGfLj+rc0O1vpMQUw6zUgDH5fc0X1zb+XBtB1dBLr/5uxrq6x530yUpwQAmx7ip5HrZJT/x/oghcizH/r1janwA0uXBk//QwgfvmqVMQHoFy5QOUzVBjwDxoEUEUAH4ghjhRUoCNA7QjGpAE8cnS07vUXj38jgB/npCDgWw6AijiMe5Bv3+iJmG+Btv9rHIglIBA6het/Kg0gfo7xAZtJFojKp85rWfhGYH27IwKAxvwYWnAAdI5vKhfwyG/rW/935fqP/djzPKwtR/XHbI8QERHl30D7vxDBNNDnImRCieWncP1PqQHEz5mTclTk2glTOppIfwNVYkzrBtUGNDh9YEt4z3fB9VI96/8vj6gHP49mitt5MoZdbBgJXJ8R8mE/Kji/NOL+WW9WaN+WAAdwStf/1BpAfN4c7QMUJohiPsdjqoOh8CPUtIdPfO68IQ8g4jP/DbWkY2NfeqCm+/8FGMsb1s8EqFEYDyRCBELjl37kCL9GQCDVEratP6EcwPL58dPXAIQFwMXaCXxSQDkzeiF/ZOB3PyA4AC4BBISvK4+Fn2kXMPbI92uk/4+MwUN/5mu8Dw2TQcMJfMsH4oid9OsCEvsotDuRoP7zNiQ0A+jUrv+pNgBxCoAPKKJqcHsEDAST+LVlg2g5L7TrPVsMQAU88ekDvapdXWOPTmwC7770yJh55Gc4cI2NtkzgzhRFGgVm7uyvI/w/ZyJMe2+hZ0O/gn8Tp3r9T7kBxM+Zo/GArT0ufzoipdv7axgO5bABJQKkqvkc1wLtOI9vWgvoGnvk639TafW//z30oK5vgswo5p+gGQRUplRzFHzf+06BxjEFVw6wvbfneCKRSvTHTm383yAGILNB5QSOv2g2O4LPTTQtvvyO1YE1dADtnFUTp4f7903kHjyPlrZrbGzsb3/xlXfx4n/lF492deH17/qhbwGlwKvsAAJUGdT6kt/pdXMY7MtERjgo+B/9sVgqcerXvwEMIH75qphuFxisQAojKprfQQo+GqIHAWGJCwUwVihAnTuKNvjPXZFr7Dffk9dvHhXn/hj95htGK87SkH2SdkRGEqiE4IFeJPpSiHxs7+3rT6QSqViiP7ZwbrxlAMICPqbjgNQmlClRIUX5CvY8oOJx0+jrW76251kE2EfqUErYz3++a3LXD+GHA5v+afphdECBUZbzfK9QiJIasB8Ykks/6QAAIABJREFUlssvcoCLGmD9G8IA4vMX6jggsZmSZ11RzQdgCqgtxUNRwLTzo4qQCQQkOPDNSa3/G22Y7AGBZ+DZueJoJAH0BcKksd7eSqmsCQWY2v6pWGpFI6x/YxhAfO4K4wM2FBRcXuilavrq615OthxSDcckQc8su6UL+p8Zm5QDQIV/GwVyO1ccSRByKFDKb+4yh1bBDWhE+L9G9MX0x/pjiWWL4y0DMNfiZbphJHF8pFIxSLuDXUjLl0wJQ0wxqBLpvB1SAf7jSVjAP3fbwr+HgGDPR3mh1iJV+oGQDewu0N4vAmcObhGxf0I4gCsb44VvFAOwktKp1JY97S4kbF/Tfb5FAY0yBzedOV5g6vS4kV8Fa2/Uvf5jz6u151Y22DcTSAPTgmYbBTwjXvxkO+74pya8WVJh5f6/JN4yAOe6ZAHURmMJ1lvoraSj19veuzvA+l2+25xnOgMJMcStCNS8fuZp9TEtG6wdjFIIVe4nwPOCNWfsBdvvRQhghd7ChoSgf4n3OefHWwYQuc6fk5Kdo/2JxIYeignbWOCA7+l42zJxUI5mWgNtQBDoanHw4zrX/5ueZ2oMOqY0/5UdKKrLkeAp1K/yDy4FRLuxkeP94m8TAcDC+fGWAVRKBi6CXCCW2NJXiPKpxNsPPN92hhpRcG4icTzx2wx4MDK//1xvBqD/c+1BPA7/pcYBaBnAt6DENwq9qAvA1rP39CvwP5FKLJobbxlAxevcZTH9IvWzglsIku//YEtBti9Qg3GBzcZR0UjL/HLf+6CeMGDsM9wUlJEjsRrkSIZYJ4haqyTwvkEnAAEvtGdbQsA/4ghomPCvAQ0gHj9TNQwIG1gzYrI/ZATfCEhXgB3ZFyB9KB+YwbiBL6gbDvp738d0AtsFGni4vGBk4+F5HDoA4bIMHofmv1RizgXxlgFUCwRWiThZBgL9e5CaUkG51PU/8QH7Dzie2Yv0+j3L2Q9I+4Ac6/v8WG0IEMSgQQIaWIjYEqwPQDREuO9HBad+1d5b2CyDP/lXNdLx35AGEF95oeJJ98cSiWJPgfbW9xZ+ZGJ6jzQF+3RADNL5tICA8AG8hgWM/dA3TYfmB73AcP+wKDGWDTPdQ78umOy/oGLAF7fK5RfFn9iyJfGWAdS6lsYUV6o/lVCQAHKm7T/y8HEcEJIertnoEwLrCqsD/Pk3qgIA5n81s2FkXmEdAHdmlitOiu4e8n9dcMiMm+XOl/n/Ker+ajYDiF/2MYUIiKhpw4iWUlBpwa9pYRbJAXFN27L8DXMw+2jIa0C4AQ4A+BnfJywDQgU0M6dMDUKLllqpMkEHwJHr4BpZ+hX/EhfOj7cMoL7SwDI4BcS+2UzCwF8HPm7+92CCABENsOPBfNzWa3CD4IeVncAjP5UEQntscJgNhWLCAA8i8dDkIh2RfAdTAgtFlfsLeCNx4+J4ywDqva6ZI+GAlOicOT6IUMHv+JbwQ2eDkyFCANYHSMzFTBf3PK+tAiQ09uM2z/Nd/pdnQkLfDBE1w0KxBrnmCr273pYD+7YkVOtPrD+2cF5jvtINagDxlSuEjJBqIk8Ue8yp+m7gIceMxgQj9UYTBFiAxsp8SfFvn3/ws0fI6r/xsw88zzOTozXDQI+gQ/TjgEwRxwVJaSqGD1IY2QC831gi1r90SbxlAJOEBBbEEjBiILVlsz4CHvCUW+Z4SrCH2YAqFLCCziAgSkaJyCDv+Z998403RDjwyDd/+rwSEEREEi+wvGPPtiAGaGCwnU7uG8lSbrhfrD+R0i3Qyy9bHG8ZwKSdgBYRkKNm+tS2KvgE5sNMfTMYTNUDzcrYMaOeVfbUc+Z9jfp4uLvMIMjAO4Y55Lor2QwN9xBpQKUhu2D5125JGFw71rDbv7ENIB6/RLMFxTmwQcnKBbY/O9AIjKzIKRdg4UDUMkaHfltFSSvz5ZkpI2YwqGdmyGpiISfAMDc+w84T4v4+GQH0rdGmG0ulLpzXyK9xQxtAfK6ePS/pYkz4gF1alNc6aH1Ee0i7wzPNms7+15NGoLfMIfv63BLKAN7zzWRy2yOi4wAPD7ASgweD3e297du3JRLmt17wocXxlgFMARpenjDHgKgQ9e7WEb5mBeIsPPBoAmAVXPHxDriwie8iU0a4Lv/piZOBjysAHNUXUCQgDfJA70jROH9B/Jvf4C9woxtA/NwrF2gPEEsltrAncYRPEGCt50IrAkDjwfvf8n0dYQE0hMgWFQNEPtLjQy0wBL7B1xPLf1DsT8manzTZ5dc0+svb+AYQj89fljAuIJb6MvexBJCl6XMP67cGOEOn+980DPqOsIB8OEdV/sDm/j7yAQgoMvPJNFX9fZm5Kt7vghuXxFsGMC3nwEJFpYolYrH3A6vb5HkR7q5O00gAQDu5yOhBpCrAqVMxfgQVEmx9gEYOBm4KfplSv2kq1b9sfjO8tk1hAPHF180RkGp/7J/+6ZdZkv0JXS5D0LcNYwE0CuChwmq32sS9gqoADzwk+hfoEyVwOgEJ0UCJ1MgfzfreszFR9RFdP5c1xSvbJAYQj89dmkjFYrF/+sf3oV9fHsRA3OUYqyMgYIBURJSf1h6DR1QFfBxYaBwA/+9GkxCJhfuaJOJluzPdQduzMbn9V53ZJK9r0xhAPL5y6YL+WOIf32/rzvoI+dXEDY7EgRAlHG1wjieNIm1xjkOGwJb/uNWe5FYXynfSTTPHLpPJdPvBvyQS/YlVNyyJtwxgBqLBpQsS//hL+UJbgQC1LzW6h+f3BEYt1GT/HE0VIKoCNhb0TYZphWacXIEbqVLbf5gRV7c39I+JVDMtf3MZQDw+/zxpAJlMFhF29altlHpIkxCa9WX6RfHO58ZbaB1gz0CEhnTmiJBhC5FWlVFXt+/946orlzTVS9pcBhCPf+T/EcufyXRnoSPISvX6hv+hzu7AdBCbScOoYVTHCajNMECdJnoymU0BHJFQX587frYb1j+T9YaunNtkL2izGcAffSKT4Wq7Zb0AA7GS8edhzoYdKaLJw/bkR6U/WyHQrYAcscrsYCjrABQ+CKVFs/ziCPA+GW8ZwIxen/yoeq25CgVwQq/Ym6iPz7O4n/XnGiv0SN6vswkc3usEwwELbJ3Q99DuF5fveR9uGcDMXmdcrD1AFkzAqINyG7NjLXF0D3CI9cxnU1QEWr8K/3yOfUCABwRwHzce+YFPlj+T6eZBvGUAMxwDfFTtf66PXdMd7HtI0cfKSFO1MK3qiMRGTd1PR4iWUmZBIyUKyLEaiO8uvwhN/6JlADN8fe5i/WpzcAJci3Xb8Bzqv/pu7pNino8iRC0GzwOKAeFp8yAL4PtoLojv+X4mcnX7f9AygJm9PnzVxX/BM2b/KxPIKrFu1S2AdYQVTwjxPwiPMCBUQis5QCJ+T08NtpxCFftnMpUM4N+1DGBmr0+kL75W738whKzMvzSDB9UDzIh5pfns6c3Pkdivk99xokAmGD46TPAxp8DPZjKVDeDftgxgZq9L0x/5XewB9K3uLCR+WCvADhUNuJUUgoOda8QH9xGjTMCH7kMP94AAVpiZ4Mry1hEws9fF6fQZV2eQC8gYL9DtGykfzBcGr60n+8lYEba/b1hDRnMG2gYCKzwXmDKzHg/RPdHyZ3zfb2ulgTN5Lb46nf7kf84gF8CxF7ClWozuoVI/YgxothfEDqReZBEkrBEp/7sqyy9SUn7L9S0DmFkHkD7jP/As8QDYC3RzwgmwCCCE+dzC976m/luT4BgvDjzyk1KJtMryZ2SJ0r/l2j9tGcDMOYBL07n0Gf/F59wuvYYE4J5st96v3MOTHn1cH8ajBkiLP5o9qH/C1BMqpP10/SUeMZD+VMsAZuy6Pp1Opz/5b4SrBQ+ADMEcBN0+oD62ide6fT1XlKgNYiUxU+bTChE6Pqi6/N06SRhIX3VGywBmCgW+Ni08wH+UJFyO191YAlfAQLce+W0OfTvSxdYKieg8VhXgWCVa/kzV1ZfuH5KEgXT6sy0DmKHr07mciAE+CoA+LD1KBmxWYHICJA5CZsrpbl+09oGdD2eFwqXzr7H83b4tQeRy6dzFLQOYkeujYvlz6TP+E5SASRToHgQaGqAcXqocpiEfG++jFAC4QNmJMB9UAuZ2PIlfTqfT1/5eywBm4Pq4XP50+ow/NmP7shgRRPaQVf+ycm86lT3LGzXHAvQOcCMFaiZRdNfY+yr3h19HPpP4DdNX/1XLAKb9+pNrxUsrPMAfcVOe47yCA+DUD3TbhnGA9xA9CM0Es30FiuTHs5naVze0DZv/QRwB6fTVH24ZwDRffygDQOFgz/gklgfkFV2AqRUqX5DtVmoe3OaHARr7p52EcQ317Hx9+BvGoaoXKiNNX/17LQOY1usjVyn/L9LAvwqQSJfPnUDAtYSs8QTdZM6EZvbZ4W/Sp2Qdjk+t2I9rwXD4n9PCSHPp9KVntAxg+q7f+5xae/nanhG3FEB5I1vJAUBqyFFIkOmWCWJWXL7WFgMekbi3u96VN8Cfbgw2PoBn0/q69hN/2jKA6bk++amrcmLlwQOcEf9LotLpO6AAr4ASc+wLADFU/6RZTPrqNrvfUxUkXU7ulr9mWf6ul37ir1oGMLXrj/744k986uq02f4yCjgj/udEpVPe4BVywmjV2GQHU7y6nd1vNUgyaXJ9+vqPXvzxM1oGcALXhz9+/aevRS9lLq2DgE/Gf5e7VA5wAhXjQQIQ8cyUr+6sHhMC2YKlk/h+Rnoq4wTUdelnP/FHLQOYzJF/8aeuvgqvvQr/lRNInxH/d9zp65ebkPMqLoBXyA4yJ+r7ze73Amd6Oc/AL2l+cW231376+o9/uGUAta/f/+jnLiWvX444ARkE/t8RB6DeOf/Lv4y6AG5JA3yKHkB2pfqB92daHsz3kT6B73Ge0cdVTp9Z6A+46upP/affaxnARNdfffwTn7v6WrPOObPnVV5V1jZwRvzfR5r1wA34/+0vaKGYHAQ4O8iSgKCuT9luIw/yP8wMIY7HCAY+v4UsubGCnI1hL/30pz76J3/aMgBy3v/hRz8VOfDxMVpGWWDujMX/1RX2MB//x1/4kizgxn+VgwBe9ycAlbWz+bdKXJAMEFUmeIv5bXEQUCYuTPiCSz97/cW/35obqK8zPnL9Z6++9iqzWex+0TfsvvpsPP7f8ZQA8vF/+zPZCsB5FBLi+AOnFcRan7o593GX8H+240jtR/k+EPFfOfRR/w3XXnr15z7x8b9qeQA3+PuTi6//7NVmr+MDwDiBz8Xj8f8T93KSGZ7//s8BySchIa+cAdQVD3RnuFp9FG38r//BsxMLKV/4Qfvb5tDeh19ebPyPNlpa2HhZwB995BPXf+7TV1+bc5PAcvpaWWr/hKHq2Y/KIv7rn1vhYHm54CB1C7zGu/wvUD8RvP/Ff9FNRh43k0RURfDSHFp67fKvuvTTn/3c9R/9yO+3soC6r8XxxfH4GX/48Y9//OPXX6330bWfUzH0/2V0PcxH4ID99z+wesASo+NZzivhxLUzAvGTvsX5cYvwn/0bO5veFJZVcen3r79U/7ZXXX29+PX/8IwPiz+nhQNMxSV8Np0uX/u5PzaVIUfTx3T3Bv/HH5j0XA/0lK4gm+GZiUEiZ9ubjY/HkqIWYe+//UdURNRixOokOCMe/0NlsZ/9/XhzXM3WHBqPx/8XW8oLkMA39/3//Xf///auZTexJGlLLABjhAAZgWQBpoWEFzYSkgtsvMwtlhe25BWqTe5+aaIfJx8yHuJXXuKSB6qmZrrrdLkmo92eqrLBNX0iMyMjvou6nkt/DtB7BOCff2JWE54WBX/6dY/RDESkIdCKOaF/1NM7lK1BO1VZePt8/zU/YQLcgLgDJ2eAQP6xbnxU13Ppz0VWYFjXiM7vCP/C/0v//In/Ck89PHjkqz4oUnFuTuigMc5MSugb/UtMSYA6bo1WzIGBVAECfPOiA9l8Hln+G8kILG7tCBieNsbEAAAh/rrcExAyc0L/hseL1AdIelPIKsO9kgC19AxRkfeUcZyDm06S+0erPQK4USdqQPomyTLhvNrzaWP+JhY7N4wdS3xjSHTTQ0mAWkLIeyiHsF+RzTbmZzJvCCDq/hEDLMphqJe6TPcyPWB5E7Cu3WTN0NR2oB96LAlQS/Qq/mBM4X5sJzcvLeVx8sEscXYE4aWOlSu/3gOIHWzblxVxsvQS69olAWqJA2T4bhHxNVdcxNlvTIzS7o5JLiijjCjTkOoeQG/q1/mVQbVvaCeBj5IAtURD+UE7Nm8FOJgrUGN6tab1Z/kOe3ru22/tAVZKgRfzKreMzElgWBKglmgz44vVQcODO5oPlD6AWtP5Z1YExtNzX5uDZ3sAiJ/YxEzZogD15oHLkgC1xIuS6wuPIP26bSaapcNr+tlBtr5J98udnvssLRh+//quHYXozwemg6IxpS8NrZIAtcRAGTcwm8MCTMxEbLzFzA+n4iXH6xsh0wDEk6rf/+r5oBc6PemBebHCB1IbAd6XBKgllmIRrq2CYWsGcmUXM7/ekbZ7fcYTG1Af4lnVD4C3R/YbVreBoRmg+IUqbRm4KwlQS6xRvP30sb42QwR9BET379uONAscKQUJNdSd3wP8ezfaSmeYbwNbs5SrP20E4TwZlwSoJe61fBeI0P+9GSpBL+r5wbHjuIazSjLYQqIFnd0D/GsbH5haAMqYzC1NS3MBUl/B/3pVEqCWWAQnwOTiq4y77swSRRsEqM931RY9GASZHsV3keWd7wH+uztDZQ7O4gFzc6/aj0qHFG5KAtQSOzL2Q7GI9p/GZmmTpK+y/4HJlQB4rVVqoWrMf7IHhPftzPU3UHdxbe4UF0CkxC3uSwLUEl0LSu6Ne/9wYeYsBZIa+H75bq8gMxAg1VDMpn6ZA2E82rG90es/Nf5dy4wFHcC/8t/WLwlQS8xY5lWtXwB7bebAst7IRrDrFznFM3Ow1BnIesRygQDrrkaYDxbDb1vmAoQLQL/yXzIlAWqJG6Xpoft1/YAYT7oBceLrl+fmQyH45c4AShMKswkiuYTAx04f9lQlbCIkJVv/4QvvJQHqiSYqPxBl/XtpWhrDR73ixSR3BxUD0KQZrS/7MvjzTd9uDiyI8mT3pgnV9R/aBs8lAeqJS3J5IDRwWtzGtBSGj3eG3cDl9IEMNWhVMS8LPTYZB7OM+JN6DCPzdrL+w+sbJQFqCtD6/by4D54zgtrkOz6c1dAqQ3E9K+YLPF32eYgY/3e4d9aeAAuejDlZ/+GjUxKgpuixs4ui52DDmA2CU3fzuDnMhk5sQjCsc3EZRbWYZeNIiJFtPyP+pG9cmDAPztZ/+HgpCVBT3KqinOg5FtvG3Eszn4y9LO63FbyPAHxBQX204Ej6k6U5AynCO2OmTooH+RiUBKgpjqhasyzpOzFmpEwE6dpu+0tUXlIa4MsyP6fz/XBgzM17FU+EFnbGdCB7m/Rmy5IANUUbsrlOWoBDnwCQJH4VhMfMHdf77BwE+WmflQ5cJKzNASrYIutgbCLy6KQ4WJcEqCk+qHdvVecP18YsxNedS4SemVuyhLegeN7APUOHCiigNoKWaZxgi3zH2QzwHOrwviRATTEEPtVTwecf3MaPiU4VfA5mjSISjgIXtEA9Q2oLukT0IAWYjWnn2KLwsq7xM4czeONFSYCaYsljIAUMx4Uxd8j28AwNPJoWIYeoTUi9QtUvEH5H7AiEveDeTFDcwwlPtDJm7c7gjT8lHOBzJkCLGn1Om32M/ZyQzaB55V5FRQnyFcwg/UIBYjAgiYb7NBp5gIHGC4Y94MLfNs5RDlYlAWqKe3XZk77uypgx8pSPp4QTs1G3+xMkb3VMQC1CnyVPZo5KGiDtATNjFudYBzgrCVBTLJBvgGogdGPMWC1sooNtzSh+N1aIw0h8MUewEKZ/pPpxYTa2IiluHTwYMz7DN0C7LwlQU+w0LJh3gGbUjsjZwQ7nvjsAmuMvA8R43OuRPmMG/C/uzJOTnp8LbgMB97M65RuEaWRJgHpipR4x+wTiozEruR0wiGfjRYVoxEsOkTQGQHIQcJneU/qmnQcfCZwoNZyu/UAaoSpU5aeRJQHqidmJA5APnxlkA4SsDoBPZqFmA2l6ED0BNSOIIYTyTGFsuuw/KpZSe2OazDoIuMSkVGpKAtQU15id//Hw9uT8L2EpolOzfbszd2Ia56yeAoCgANEJypz0x2zXzEBkI2J3GW3TmDdmHUSRqpAmzyUBaoo/+srui12//TT+wbLbJ7f7V0FWjIxA9RQAVIWfdYrib8GtzJ66TCDNRH/UY44mDN8xLQlQV7zRiQ4y3wvk/AfuA8psfyY1Y3UCANlQ34JmD/tTYWX6AR9qxUHYAn7NB9LMTuiUBKgtquR9/wheTCzO0uLmjt/ejOkCZ6WxTzBBDe9NXxLowBePPVEe4nEb8LXebbonCEHdwlVJgNqiB4Low+gHHMj512CruB/smy7XC5UuoM3Ff4gQwB8PxrxzheBSieCLTXOkO4OCFE1KAtQWt0iAPiC/d5h7f6ETnR+PFOzKjUFRAUU+LHsNb+wQWku3XCFwq8D/Ba4IN6reYFsSoLZo8A7AW7bbRLwwas0PANvzbQNHo76c/Vfp6OecAgg3/gYtcGYRhdvehP3HBVI0LwlQW7Qjvz/dwmMj/8knQM7v9x+3xvM41MmvxH0wx/qgJgv5G94+/KQILyIcMQb0/zId/Tw7RhsysCRAPfGRbt/s+R6HgaafK/z6j6PvG2GFB5gpf1Z3gdQGcuBv/JPU5kE2nw9qkGtpQpN7CIxKAtQWA2nh8Xr2w9g+Kn5/LPPb/nKoFz0qBZEzCmLU37OhfjRDJUoY3yb0ezapkEwYo7B/3JUEqC2WSBc2YQg9+AaBKPzSCp94ceF80X9PRxBJc8r/5qsxc2Cj6ZRZQQ50oclJKWO6JQFqi7XgdKgX4KXazSWenPBDY66VbBB+X0eQjMUjQfjSMw0sG03H7eXWBM+CVHxIY8FelASoLe4j6y+T/AhS7acn/NyYvVr0YjXAyp8Z6J+OkPAbb09Cpz/JAWHo+K7iIADYLcAB3pQEqC0WNM5Pkh/+cYQvnJzwsKHZHbPFFAEQlcYQrX+FMvJLPU8PYgA+ZCyC+CbNkgC1xY74m1Hywz+aVxN3gMoJj0/G9G3lmNfS4BnoH5S0SLzwdUFg5rEXEBShrwGVgmx8k7eSALVFV4B8Lt3f4ywO0xgQNY+nX7GazaTB9c2fxAPjvuB7SF6MwhEXOX5XmPn0q9giG1vEJQHqiRmIBFBaynEW9w6ZRpADDxV9gwy+pwVDHUBVJNilwb+D59hc5lZD3AjawQKKZUR0y7EkQF1xjZr/Fz7iLO5dr+/wMQt6Atzd41u+zP8Z9E81An2Dv/D1wytiIzkihqImPGJl5oC3JQHqiyazgrk8i9TcXkX6P0B1HzV8L6J49E4gM33L2I+wjdzGpa53AEeZ9pyKQs40dywJUF9cOsX9iNV7pOY+59L/NuJ3GECqVcHTVmBRQ0UA5IIfL3w9RgSmeWJUAWiwdSTBD9slAWoMoAEvE/XXKQGg0s+nA1u7PFIP0b/ymQcHVoHNk/y8d6egKSINCqIrREc8S5K02KQkQI3Ro6fFHb5Izb2tSv+/x9LQhYFeWNoW1F6Ax49seJhtEce41JXUQLQLMAEQwDqE0nIsCVBb3KISBggrMFJzp7n0v42lWU8cBIEbR/EpD1vKMIDIZulzuFi0CSVM530sNgZ0APBbz0sC1BgNXrH0ECI1d1q1+wiruOcU8ceS52A4EJ666jYAYDXQN5zqExRd8vDE40rfEjuZVUdbJQFqjDYLA1Bbf2Vow87aPu1UGWDVSzDtHw9NzJimzB7wQqEmaBGgUzrCLm31c34R+YaNSgLUGC+yA6QD+iH8+bFq9jNRdwPkVh8BvDyfrCcDRREgDV8O9f6cOoBEIIzXjVaaEiOPAxclAWqMQUX4l6i5neqEN6zXW4BMLNTyp4bPJRELV2M/Cxjq/U38M2RN4HnoBI5CbahQRG5cEqDG2GZun/6XX1MCoKb8W5zH0lD4vyhyIQB+P19rsXAqDhzX+0+xLWD5DWKxd0c4ER4hr0oC1Bjz3NoDyLi7jZl4qIOA1JwiQq7sna56OPJcf+UMZgVkAC7U+ztSmyJWQWw4RLKJC0SCWEU8lASoMVogioDhVz0qDjPGdsQKe60vrCh7pxbCl4QkdlWQoV/T4fjopoYhswpitb8KWARIqGDfZrguCVBjjMgFiJ5pGsVcJdnQQO/1T3kXS8OKsjcXD57m9VpBhTHYLzA9HoAZCHFXiejvh9gujFtA+Iv0SwLUGET5Z/BvUup+Ib+f1PXFgNTsYEXZm/h/05Q0WdmQtoFU718T5pMMyWICXAsiMG02lyUBaowvKM4eYWmmWdxHJvkPgd4XlV3P8QBiU2ddKRuQQEah3Ourq0H4iPf9PrDmZCpE3koC1BlavJHpGklDlJQC/YoOt8O2sxXZ/9RCDAOEndYcJ/KAf3Es91gcKJ0QqeHTYCZRogztSwLUGT3h+od/Uw0wAZKJTN27cDJfVWw/2Hc4ILn3BAER5GfoMKZ6v8fzwXjjSA2fTuY7DoDlCKg1aH6bNB2xQQ0ignmk4zyWhqc8oIj5idv2O4jcQ7zyh9091fsHmgMktlFKgHbGP3LWliKwzhiLOlzcB5JZw4DVQ+NTe6fKoLr+w59M6VlalhwDYKRwqveP6DK94F36SZnKCIArreAa43EqLuDx0E7D2GGi8cTGLqTb4eSEBxSP++TwMGexWCUJFbtEobVAvYZYDaSWbwvZfyS+9HBZEqC253+FohUaqTlp/W3Z1Tt+KV4OJniWB0j67rvzHGE3Si9WkCFxiB7bCBMTrkG76ATWFA8N1KPYsD73nABOYL2YgHoDPMcDDOrC8U5/QhAMe8BT3FSsy0iDiQPadBnFwCt/TH9JAAAHrElEQVQHTB9KAtQQzSVGza5E1Qi7/SF9cUnU3oTzmaRnmNt+0Ge6ur9X2gMpP+KuMgcRGPfbAJGAp5oXGL6MsN2XBPjJMRsEGA4DQlMpRnCcpcL8pmmfTwCs2H7E/YGR/G08Wf8YpIINzYMVD4imfq3cczhdH15WJQF+4uK/b7BEZwJkJQFHuoPNWTUuIvljbbjNtT/oqsg43mWVIBh/Sqz3n1hrIJaPxALvv+eew1F7GGDa2pcE+Cknf+tIlm+MBSP8Fts1zYXo41d9atwvMwYQc4NY1OeuQhBMF4JxKhHVFBED1SjGuoI+itQS/1Mb61lJgL936S8Gr6D0fyzII7WAz1x/z9OmQND+WMctRUFcCAEOWNLj5ixBMCVAFxj4C8kuIMbls82LyqhPGm+YvcliXxLg74kv82l2P6f/ytzxQUFjrQn+n9h+u5QWcrSnmT9SmzgEVo2DZJJoHgT4G74gOhC7fIyYqQf7uJ1flAT4i9HfLQ+5T7C60qeDwCp9tnGS+aFV3k1poSfBRCo6yMs6uStQWu2xnttnogE620yLtwvQTDVVbjwvd/2SAP/1w9/eWq3FqcSBRbcFMjjuLpF4aSHG/XotxzT9CwAf8rJl7gqUOvxf4l9D/XT/ScO/R1AZI544kHpRoeHua0mA/zT2d1f+Zu20yScow1gmBjey7ss6rnEG+e/TStUycPR8FZNjoUxBuBawqZJT5sJIQDG+lU4VQ5ltCdl4MIwJ/W+vdvuSAD8cN5v2exTvtupurow9xSzk+f4xe2kj6vvTdCcd862qwYytyLrdcA0Qvyt2EVJq9bQHmYXcF+Jy02OTQiTNoZycFLcHfG/fX5cE+PcPfzR5thnYRhYXY4CSvUdvWMXij9ExUic86fjHGydKgWwzglrUCdQVwZFCQCr3Dqo56Bd0Zez3uJu8a79KpTscPwi4DBafJ6PrkgDf2fcvtu0QV+oj+yV9Hsw349NN9fIWQIDChPnjZp4S+rHgXvUrjywUrCjC6Vm1QRmJWYuvp2Xd9XizHLz4v93Vmf8D6jdX7fZy1SwJ8JNiIGSdeJCn83oDQv9lsNCLfuWW0MIpBcKC3lN3URmJAVHGfpf4jRLg8qVyXeBj/h65jxeUBcPhkrF5n0Ccg7n3nxJgxjKD6SKA7beSAL9erG6zksE/MLJxukfL3D5rz3H5HjL1wGQCRFt1Q3SEU5fo0C0J8KtdGwcA1fVPKBEzYtkPBeTNTuJHpn4xYlBQfjskG1oxFhzsSwL8QnE94Aa+VOC2If0aadfTQ37N3+GIdHd0qYZw0iruKAYQcQdwclMS4Bc5+xdt6cWpW7jQNRciDkAdAqx4fA2d8IUS1lBwvjeKAeS46Q+dxVtJgH/64a8Ww3dy7iHbr3QUyDl9wx17Aotat87faCTIYAYUyiinC0AMIGDSkW/xDRY3JQH+sZ7RYnkk1W+exLFu1/tKN/pUGZ/EICs9pFla/065gatKb/XOrX2nUUP+53e2i4eSAPXGxWjYsWzZl5kEpdHcQUMyxrqMTy+qFHGXXB847kM+qa9/OXCigZYbIi7Bcfv0UBKglnK/u4lML5cd/MD03/CnywyivUbB7qZvOpF2bljtChDuCtnY53KogT8KAKAcJI/Dp9ljSYCfdt5fjLadd1QwPDn4M/q/nVQa7lMr2N30TVenXUQmFGFAnQI+5w/z+kOAP0w1VPMK/w/az5YFnyMBLlebyW1EXmcQnHM2gLfr6hX9rnpwW0KLZlUgiQSnfjBaW1V+u1kfFDhQ+w2D7AtBR7wxHM0uSwL8HfH1ItR68by3ufNXxQbwddo5V5W/HbBycDtC++j1bUV0jn7K8+nY52Y06ExfcwdyVYPo6aXPgovLkgB/Ld4ufihm181v/ad+9NO8/ODmMaGKPzpViC9Y6HzrTS+b17Mf+5v1SwL8wztIO5WGev0nsGgWYyc7ABf4na+/+3+f3z0BugcraB4eFnTOfWs75xREaO9vNPb5X0yAmzYgFe1q/Z/3eJxZZ5VfAEF729clAT5prCYQ5cKcauIDC32dxD27wGZygTi4KAnw+eJxMYWM0QOE7nXf9PaYJPlPkgvklkPj7rEkwGeK/m7yzgJieoDnP3e++TAfj06mBRrhD9AbjN9KAnyOplF3fZThXVDxAGUQCLffKez7SVccBIFsuRiATmtVEuDXvvJ1N8NOmgYk0zDfA8hgAsfvYnKbDW4C8AARNd+vvd2MmyUBfsWYja4qg4Ek72XFEgTs4N+05t4GzmqxUQfSQ2Bpgc7m4rIkwK8UzbsP0HyA5CucuYD4m33jB+r57lTZi2s+EhK5MGwFV0/XJQF+ibjYfLxGTK+28gYZ18m0YPPHD73jGhVGGDXfL3GSw58i9F5+g6LgcydAc7fthT3augo932I+pQN3WP/w2b2fv4Ji/DlVDeghpI/ecNcsCfDPPPzF4CCynpDbhWEFKXT4T7UaVttXRggx34/MilHVBADwPFg0SwLU2uSZtTqvosfiqnxcHv+H5zQdjP4rtNaX+8mzMijH5E4Ap8AgjzBqtx4eSwLUdNFv/XCMxjd/qV5/u+mOfviHbbqPJQFKlAQoURKgREmAEiUBSpQEKFESoMQvHf8PhALCdeH4fwoAAAAASUVORK5CYII=" parent="1" vertex="1">
          <mxGeometry x="546" y="353.25" width="78" height="78" as="geometry" />
        </mxCell>
        <mxCell id="Lv1oq39Oq0ErjtgaDXQU-1" value="" style="rounded=0;whiteSpace=wrap;html=1;dashed=1;dashPattern=8 8;" vertex="1" parent="1">
          <mxGeometry x="290" y="75" width="120" height="75" as="geometry" />
        </mxCell>
        <mxCell id="Lv1oq39Oq0ErjtgaDXQU-2" value="+ source_code&lt;div&gt;- dockerfile&lt;/div&gt;&lt;div&gt;- .gitlab-ci.yaml&lt;/div&gt;" style="text;html=1;align=left;verticalAlign=middle;whiteSpace=wrap;rounded=0;" vertex="1" parent="1">
          <mxGeometry x="300" y="82.5" width="100" height="57.5" as="geometry" />
        </mxCell>
        <mxCell id="Lv1oq39Oq0ErjtgaDXQU-21" style="edgeStyle=orthogonalEdgeStyle;rounded=0;orthogonalLoop=1;jettySize=auto;html=1;exitX=0.5;exitY=1;exitDx=0;exitDy=0;entryX=0.5;entryY=0;entryDx=0;entryDy=0;dashed=1;" edge="1" parent="1" source="Lv1oq39Oq0ErjtgaDXQU-3" target="Lv1oq39Oq0ErjtgaDXQU-15">
          <mxGeometry relative="1" as="geometry">
            <mxPoint x="580" y="260" as="targetPoint" />
          </mxGeometry>
        </mxCell>
        <mxCell id="Lv1oq39Oq0ErjtgaDXQU-3" value="" style="rounded=1;whiteSpace=wrap;html=1;" vertex="1" parent="1">
          <mxGeometry x="510" y="-1.25" width="140" height="170" as="geometry" />
        </mxCell>
        <mxCell id="Lv1oq39Oq0ErjtgaDXQU-4" value="" style="shape=image;html=1;verticalAlign=top;verticalLabelPosition=bottom;labelBackgroundColor=#ffffff;imageAspect=0;aspect=fixed;image=https://cdn4.iconfinder.com/data/icons/socialcones/508/Gitlab-128.png" vertex="1" parent="1">
          <mxGeometry x="584.5" y="4.5" width="55.5" height="55.5" as="geometry" />
        </mxCell>
        <mxCell id="Lv1oq39Oq0ErjtgaDXQU-5" value="GitLab CI Pipeline" style="text;html=1;align=center;verticalAlign=middle;whiteSpace=wrap;rounded=0;fontStyle=1" vertex="1" parent="1">
          <mxGeometry x="524.5" y="13.75" width="60" height="30" as="geometry" />
        </mxCell>
        <mxCell id="Lv1oq39Oq0ErjtgaDXQU-6" value="" style="rounded=0;whiteSpace=wrap;html=1;dashed=1;dashPattern=8 8;" vertex="1" parent="1">
          <mxGeometry x="520" y="73.75" width="120" height="75" as="geometry" />
        </mxCell>
        <mxCell id="Lv1oq39Oq0ErjtgaDXQU-7" value="- build_image&lt;div&gt;- tag_latest_image&lt;/div&gt;&lt;div&gt;- update_manifest&lt;/div&gt;" style="text;html=1;align=left;verticalAlign=middle;whiteSpace=wrap;rounded=0;" vertex="1" parent="1">
          <mxGeometry x="530" y="82.5" width="110" height="57.5" as="geometry" />
        </mxCell>
        <mxCell id="Lv1oq39Oq0ErjtgaDXQU-8" value="" style="endArrow=classic;html=1;rounded=0;exitX=1;exitY=0.5;exitDx=0;exitDy=0;entryX=0;entryY=0.5;entryDx=0;entryDy=0;dashed=1;" edge="1" parent="1" source="3kWTCwj-a79-4w6-zaF0-11" target="Lv1oq39Oq0ErjtgaDXQU-3">
          <mxGeometry width="50" height="50" relative="1" as="geometry">
            <mxPoint x="310" y="140" as="sourcePoint" />
            <mxPoint x="360" y="90" as="targetPoint" />
          </mxGeometry>
        </mxCell>
        <mxCell id="Lv1oq39Oq0ErjtgaDXQU-9" value="" style="rounded=1;whiteSpace=wrap;html=1;" vertex="1" parent="1">
          <mxGeometry x="760" y="-1.25" width="140" height="170" as="geometry" />
        </mxCell>
        <mxCell id="Lv1oq39Oq0ErjtgaDXQU-10" value="" style="endArrow=classic;html=1;rounded=0;exitX=1;exitY=0.5;exitDx=0;exitDy=0;entryX=0;entryY=0.5;entryDx=0;entryDy=0;dashed=1;" edge="1" parent="1" source="Lv1oq39Oq0ErjtgaDXQU-3" target="Lv1oq39Oq0ErjtgaDXQU-9">
          <mxGeometry width="50" height="50" relative="1" as="geometry">
            <mxPoint x="650" y="81.67" as="sourcePoint" />
            <mxPoint x="740" y="81.67" as="targetPoint" />
          </mxGeometry>
        </mxCell>
        <mxCell id="Lv1oq39Oq0ErjtgaDXQU-11" value="" style="image;sketch=0;aspect=fixed;html=1;points=[];align=center;fontSize=12;image=img/lib/mscae/Docker.svg;" vertex="1" parent="1">
          <mxGeometry x="785" y="56.2" width="90" height="73.8" as="geometry" />
        </mxCell>
        <mxCell id="Lv1oq39Oq0ErjtgaDXQU-12" value="Registry" style="text;html=1;align=center;verticalAlign=middle;whiteSpace=wrap;rounded=0;fontStyle=1" vertex="1" parent="1">
          <mxGeometry x="800" y="13.75" width="60" height="30" as="geometry" />
        </mxCell>
        <mxCell id="Lv1oq39Oq0ErjtgaDXQU-13" value="Triggers" style="text;html=1;align=center;verticalAlign=middle;whiteSpace=wrap;rounded=0;" vertex="1" parent="1">
          <mxGeometry x="430" y="57.2" width="70" height="30" as="geometry" />
        </mxCell>
        <mxCell id="Lv1oq39Oq0ErjtgaDXQU-14" value="Pushes images" style="text;html=1;align=center;verticalAlign=middle;whiteSpace=wrap;rounded=0;" vertex="1" parent="1">
          <mxGeometry x="650" y="57.2" width="100" height="30" as="geometry" />
        </mxCell>
        <mxCell id="Lv1oq39Oq0ErjtgaDXQU-15" value="" style="rounded=1;whiteSpace=wrap;html=1;" vertex="1" parent="1">
          <mxGeometry x="280" y="290" width="140" height="170" as="geometry" />
        </mxCell>
        <mxCell id="Lv1oq39Oq0ErjtgaDXQU-17" value="" style="verticalLabelPosition=bottom;html=1;verticalAlign=top;align=center;strokeColor=#d79b00;fillColor=#FF8000;shape=mxgraph.azure.git_repository;" vertex="1" parent="1">
          <mxGeometry x="370" y="300" width="40" height="42.5" as="geometry" />
        </mxCell>
        <mxCell id="Lv1oq39Oq0ErjtgaDXQU-18" value="Manifest Repository" style="text;html=1;align=center;verticalAlign=middle;whiteSpace=wrap;rounded=0;fontStyle=1" vertex="1" parent="1">
          <mxGeometry x="300" y="306.25" width="60" height="30" as="geometry" />
        </mxCell>
        <mxCell id="Lv1oq39Oq0ErjtgaDXQU-19" value="" style="rounded=0;whiteSpace=wrap;html=1;dashed=1;dashPattern=8 8;" vertex="1" parent="1">
          <mxGeometry x="290" y="360" width="120" height="85" as="geometry" />
        </mxCell>
        <mxCell id="Lv1oq39Oq0ErjtgaDXQU-20" value="&lt;div&gt;+ helm&lt;/div&gt;&amp;nbsp; &amp;nbsp;+ templates&lt;div&gt;&amp;nbsp; &amp;nbsp;- chart.yaml&lt;/div&gt;&lt;div&gt;&amp;nbsp; &amp;nbsp;- values.yaml&lt;/div&gt;" style="text;html=1;align=left;verticalAlign=middle;whiteSpace=wrap;rounded=0;" vertex="1" parent="1">
          <mxGeometry x="300" y="370" width="100" height="61.25" as="geometry" />
        </mxCell>
        <mxCell id="Lv1oq39Oq0ErjtgaDXQU-22" value="Updates values" style="text;html=1;align=center;verticalAlign=middle;whiteSpace=wrap;rounded=0;" vertex="1" parent="1">
          <mxGeometry x="425" y="200" width="90" height="30" as="geometry" />
        </mxCell>
        <mxCell id="Lv1oq39Oq0ErjtgaDXQU-24" value="ArgoCD" style="text;html=1;align=center;verticalAlign=middle;whiteSpace=wrap;rounded=0;fontStyle=1" vertex="1" parent="1">
          <mxGeometry x="555" y="306.25" width="60" height="30" as="geometry" />
        </mxCell>
        <mxCell id="Lv1oq39Oq0ErjtgaDXQU-26" value="Sync manifests" style="text;html=1;align=center;verticalAlign=middle;whiteSpace=wrap;rounded=0;" vertex="1" parent="1">
          <mxGeometry x="425" y="342.5" width="90" height="30" as="geometry" />
        </mxCell>
        <mxCell id="Lv1oq39Oq0ErjtgaDXQU-27" value="" style="rounded=1;whiteSpace=wrap;html=1;" vertex="1" parent="1">
          <mxGeometry x="760" y="290" width="140" height="170" as="geometry" />
        </mxCell>
        <mxCell id="Lv1oq39Oq0ErjtgaDXQU-29" value="" style="shape=image;verticalLabelPosition=bottom;verticalAlign=top;imageAspect=0;aspect=fixed;image=data:image/png,iVBORw0KGgoAAAANSUhEUgAAAgAAAAIACAMAAADDpiTIAAACo1BMVEVMaXFGarNIarNGarNEarVIaLdIarNIarNAcK9IbLNIarNIarNGarNGarNGarVGarNIarNIarNGarNGaLNIarNIarNIarVGarNGarNGarNIaLNIarNGarNMaXFGarNGarMAgf9IbLdIarNGarM4cKtGarNIarNIarNGarNGarNIarNIarNGYrlIarNIbLdIarNIZrdGarNGarNGarNIarNIarNIarNCbrFGZrlGarNIarNEZrNEZrtGarNKaLVUVKtGaLVGaLVGarNGarNIarNIaLNAgb86YrFGarNGbLNGarNGarNIarNGarNGbLNGbLNGarNIarNGarNGarMqVKtAYL9GarNIarNIarNIbLcyZs1GarFGarNAar9GarNGaLNIarNGarNIarNGarNIarNEarNGarNGarNGaLVIarNGaLNGarFIarNMZrNGarVIaLNGarNIarVKarVIarNIaLVGaLNGarNGarNGarNGarNIarNIarNIarNGarNGdLlGarVGarVGarNGarNGarNGarVIbLdKarVGarVEbLVGarNGarNGarVIarNGarNGbLNIarNIarNGarNIarNIarNGarVIarNGaLVCaq9IbLdIarNIarNGarVGarNCarVGarNGarNIbLVIarNCaLNGarVIarNGarNGarNGarNGaLVIarNGarNIarNGarVIarNGarNIarNIarNIarNEbLFIaLFGbLNGaLNAZrNIarNIaLFEbLVGarNIarNGarNGarFIarNEZrNGaLNIarNIarNGarNIarNEbLFIaLVGarNIarNCaLVGarNIarVIbLVGarNGarVGarNGarNGbLNGarNIarNIarNGarNGaLlIarNIaLFEarVIarNIarNIarNIarNGarNIarNGarNH6vaYAAAA33RSTlMA72DxMCCBwRBAod+xz3DRv5+RUOF+Xq9ujz79TgDt+wIU80wI6fmr24XryxLdBtkq9bf3vfX3FhibeB4OVhACLDytqec4BAzJLs1k8dcgKNW5x3YGCMWLxyIEJKEMpWyDn5nhNEaNiUrvSByzCnJ4XlIYk1xgu3SXtXLTseUKZmiTp/M2Dh5ANH6DSONaWljRVEo8YnwyEhw4tXzBJsOBTo8aPmaHlTJEUFzVeoezo3ClOjBCaBTPLizjQt9EwyQ2Yq+jahpUv3QielhGbDpq01Iq5aedFsUmKJWdbpHn8BmSoQAAAAlwSFlzAAALEwAACxMBAJqcGAAAIABJREFUeNrtnfmPHMX1wLtH060etWbUrdHsbO9uG1vYLF6vD+EDA7LXEDAxLIexMUbYBvlIAHOL42vEvdynuQQEIoMI4RIGEQJIKFESJVGCcjgojlC+X+h/5SsbbHZ3uuuueq+n6/2629U19T5d9eq9V6+c1EqlxbFDYAGwYgGwYgGwYgGwYgGwYgGwYgGwYgGwYgGwYgGwYgGwYgGwYgGwYgGwYgGwYgGwYgGwYgGwYgEovdSHOnEURXFncGjIAlAxGYnDbIaEiWcBqMynn8zS/nfSHPQsABWQgWZWKM0BC0B/S9BxM6KEAxaACqv/KAKDgQWgL8VLGNR/RNxOYAHoP/XHGbtUCAHHqj9fYs8C0DfS6GYCUg0EKgBAI8oEJa5bACqs/iMSNSwApZaBMJOUfkfAseqnIjBgASil10eN+vvdPdivADA5/SwC/QqAYvX3s2+oHwHwYuXq718EnD5Uf6ZL3I5nAaiu+vvTPdhfAMh5fSqJgGPVz49AwwKAUEYMqb/P3IP9AoA6r0/FEHCs+gWlTxJI+wCAYBBA/X3jHiw9ABqcfjwIBBaA6qq/L9yDpQZAt9enCgg4Vv3yCJT5XGFpAahjUX/J3YMlBaARZcikrAg4Vv2qpNuwAJjx+qBUf1ndg6UDYCDMEEv5EHCs+qvtHiwTAOBen35EwLHq14BAiUoMlAUArzzqL5d7sBwAeHFWNikLAo5VvzYESuEbwg9Ao5zqL4t7EDsAjSgrtaBHwLHqr7ZvCDMApJKOFoG+BwC/048DgQELAKfXp5/Uj9o9iBKAoFxen1Ij4Fj1m0MAo28IHQDMBV1L6RvChwAyALw4629Bh4Bj1V9t3xAiAMQKuloE+gSAfnD6cSBQtwBUWP2Y3IMoAOg3r0+ZEHCs+uEEQ4kBaADADvdb9yAGAPrW6VceBByr/mr7huAA0FTQ1SJQDgCq4fTjQMCrFABI1N+teWnqtXF4IIHcgxAAIPH6RMe9cfWougg4VVV/Fk/vFJIFCaAIrWkA0Bzu787sFxaTxLh70CwAeJx+4Sy7O0CTgWwYAaeS6s+yWs/KVFHfkDEAgg4mn2/Y20FU3RvoNwCwOf383i62kHmIgz4CAJ/PNycfo15N96ABADA6/fL6WU0PsVNF9ZcEACNFaDUDUEfq8s/rK86jqLrdg1oBwJvpl9dbrJ3Vi4BTRfWXCwC9RWi1AYD7cH95lgDd7kFNAGBP9CyJETgdgZESAYA/zzcoHQC63IPqAShFpl8DvyPIEAJOFdWfZa3enrfL0G/1RWjVAlCagq5Jb9/9cvRctXtQJQAlSvSMentfmrPJahFwqqj+LHNxh4NpvVfoG1IFQFCyNO+gdJuAmaJsFlAEwGDZDnk0EGcEsZmDbUQA1MtX0rNWdgCyLPKQABAkWfnEL+kmQPk6IA9AUMqKvnE/AJA1A3gAyqn/3n1gOWvUyBPgVFP/WbM/AJAnQBKAemmPeM/+JWX9IbIEOBXVf1ZuN4A6AuQAKPGNDrMSw73y/pIuHACt8o7abE9Qo8Q/pQ0FgOdaAFA4BQMgAEpd27dVwmyAIklgACj1mM12Bfql/jF1CACC0AKA1qthAoBaZgHogynAqaYF0G8AxOYBCDILAB5xzQNQswD0hS9AGIDIAtAXa4AoAF7WX59Mo+Q/xzUNQKvkAxb2SzRQdg1wqrkH6M0JLDvRiWEASv7B5ETQSl6+vGkWgHrJRysvfFJyAswCUPJNYH5Cdbl/U8MoAH35tfTVvlYzAKEFAJtEJgEoux+4Hw1b1yQApU4FiKKCLZMfNcv8u+oGASjnMZqu32pQTaVGw4/L6eZuGQSgbCMUxS0+I9lr+N2yrQixQQDKtDTGNdFsCa+dlGlNCM0BUJrISbclkS33nblbIgg8YwCUwm/e9FVV1/Ra5Yh8tI0BgH88mi21FZaDdgkuuk2MAYB8LMKWlvraNezcN00BgDoZJEzqqS4Jari3P6YAQBwJ6uq+dK+OeSloGAIAayTIwAUrR6cBtNsC3xAAOAcgbBm6aA3vVRiRGQBQRoKidmpScJZFdc0AgDASFJm/dVstAq4ay6JuBAAFkaBurREEjZoidzuA+lUiEH7nrqz78kkWNSMASC+A3eO2WuDLIxC2UyhRgUA4jV7p0YiNAKAUU9kqs2EthRRP9muIZ1iuskW3QhMAyEaCWgo3lW4rhZZGqHIwZAc3MACAZCQoUuhX6gYpAmkJf7Zur/EiWXe5bQAASY+4p8yzGDZSHBIIDolbV77HTgwAIGerNpX5lpMgRSNC64BbV/99RfoBkIwE+YqiC816ikkESubn6192hdUPQE3LIsX5sxEYfz1RIt7tTE2Ljd3QDkCip4NxiT9/oUmgpmeT5WsHQHLfXlNgW2Ja/WfozlVgrUnOsF3dAMhGggoJZb54wG2nWIV9OxDrcrS7ugGQ9VQUE8pIQNNLEUtLVv/Ssfa6ZgCkI0GeHAGJrIr2PnL+5UV/u+LWDdK2oCunf+l0u5pmAKQjQQQrhU6A1PTvjbx618VHWvm46D/ezLJs/wNfvn6hzDIQyeg/lb6BLdYMgHz4yxMnIBS2/h/9Mpo63sy6ov/acOw/Jg/e8aAwAomEiuSP3IR6AVBQGobkrCITIHg5yi21f4/NaOfhov/86/T/mrr9scYSoRfWhPWvogB3oBUAFWeCYkECYhH9P7pwf09Da4v++aWef73rqUsVGwJxKrMGqo8HcQKg5GwESZPFOyl+82/izCT3i5oofCDnn1c+8C7/POA1RRw1npJs20QrAGpKwxC3crGibKcN/zOW39Jk8TMrcx9YGV/LbQo2+X9FQ1GCnE4AVJ0JIlrzPlvknPzxjxQb43cXP/Zt0TMn//F6TgJi3l/RUTS2mU4A1CUEk3I5ai5j5KxI5t+3lPDqC4ofJDw2Z+EtfCMbc4UwGuoOWzQ0AqDwnnB3kD2yxqf/8avIc+klxY8uIj64bZkUAQTTR2mOua8RAKVngsIBxgmUS//jC6co791Y/PDtlEf31YUJcIuX/6Cj9LxhVyMAmVohJPR7cRRF3xnxPPoPHp+kvnW0+PE/UB/+0eXcBES+7/vt4s9/UPFxU1cfAOpLw3Q9aniNQ/8PMag/y07j3oHMkJ2r+Qig5K401NfcrGsDQEN1OJIpcNQgZHf/zv3FAqZXvlHcxDcsz6/84CF2Aii5K4GOM4Y1bQBoORSrKr3ni0OML+wUt3GArYVr/si+JhH/OqCl2ECsDQBNtRFUZPh8fR3z6z4qbuUO1ja2XqQAWU/TKfNQFwDaLgmQz/A/wPG2F4qbOZ+9lQ+k9T+ordZIoAkAjdXh5CaBl7fyvOvZ4obWcDSzuIHy8+eNB/EAoLMogowl8C7fp/Sb4pb+xtXQjrXifW7rLDWUaAJA7yUBg4JDeelOzhcRUj3+wdfSk6LUBnoLjER6ANBdHU4o3p8uW8r7HoL99hVvW/eK6V93lSU9AGgvDSOS8fOvldyv+VNxa3u5G9uxWW2+iPF4EAcAie5u8wb90nTzLwXesr24vbX8re33UC3/3PEgDgAM1EYL+eaAvZ8JvGOYlEYg0N7kE5zmv4FKk10tAGQGhOvQ555rRF5xDanJSe2dNlJm09UBgJFLAnicWGtOUP+KJ4WavAyBO1U0HsQOgJl7gthX1PMF37Cf1Oj7Ym2Orod3pwrGg9gBMFMsndl+vUr0Db8ltbpFdOc9H9VEyhEPcnBNXcxOrJ3Cb/gZqdmNwlvYT9HspTKuqwMcXFMX6+T1jPgLdpDa/ZFws7vWojEBueJBzAAYuySAbfY6UXhC2klq9jTRVsdOZHIBGrt0pK0cAHPlsdm8GKeKLtc/JbV6mWCjK+ZhcaXwuoKYATB3XTTjFmbu6ScJNf8lqdHHhJpcfiW2aZQ9HsQKQICP3bS+WKT9vxOTNIQ2luzpQeamANUAGLskgMcbfL3Ikn0TqcXbRNxAHIdH68YAaCgGIDHVcb7TzQK24AipvZu5mzv7TK4OG7t2u6UYAFNzF2+Zs1Nf433DI6Tm3uFt7SzOrKAgRDaQrAAY6rbLHVyd2MRpC75Nam03X1uTN/HngpkaSbUAmLouWuTis3V8OUFXkNr6mqupRWcIdNfUXOopBcDQ0iV2AzpfViBxx76ao6ETXpwQSgdG5VJlBcCQB0u0ChyPLUi02a9nb2exaEaooY8pVgqAmUhQlIoKuy04TG5omNmjfL1wZ83YgU2VABiatiSOWkzcwWgLjpHbmaPS9Q/rDwwUAlBDPgFw2IInq/g6GV3/sFNAWyEAMfYJ4Kgt+D8sLzmP3AhLxj6z6x/2e/IVAtDEPwEckb+NSb+FwZbYL38yOMQznkwABGWYAI7IPLr+KB6yg0pd/7BTgDoAjHivuqkCmbiTZgtuIzewQ63rH3QKaCgDwMjOVVGhEJoteD/58V+qdf2DTgEtZQBE4CvWbg5b8H7iex4nP/0B6dmp33OsRmeAO1a6ygAA91zOH9vHsfISbcFN5GdvVOT6/2u4A3xSdVUBYCISRI4CXJVlizgm33kril/0C/Kj/yx2/b/K4frfPSfLfkW0q01MAZ4iAFoG+krctN6y6ojvfS/HGttaVfSiZ8gP3qrE9f/E8izLtoBPATVFAJiIBBH9lh8e/ZdveW50+vyCghd9Tn5ujwrX/23fRRRGoL3rsSIAXOCuPvr9P01yeQryiz5OUp66PPepOVyu/2On1pbOBf6smmoAMMEqcX7dwjp/z5Rr8wI7K2hP5RmQG3kqxc/98Phz/4TeCQZKADDQU+Ie8Nlp/3gDDwH/yTnpdyvtoZxEY67yVfOnVRyfcz3wxNpWAoCBhGCitTLDs/MNl7/lytkvWkp95PLls+fRr3je+OmMsMmXwOPqKwGgCTtVvT7zXx/g8wvOsgVfoT9y9SzXP9f7zpjp411A8l7UgWdWVgAMRIKILqvZVUCjc7lUMt0vuJwpRD69XOi3j3C9bMNsC+Je4C9LBQAN2BWgt3bjfr7Le35z8rEHf8u4j3zw+FWDB/hc/1/01KxbDOxfaSgAQL/HwuXcLe3iDMjf99rybOWi5GP2J9554OTlS/9w56l873k6J6HwXdi5taUAAP2RIJITIDdR392dIpQXc+MHsK6ArgIAYDcrh3OfWP4EOvVP5Pc0ex40z8KVB6AO2snVBaXghm9Dpv/5B0W+QQTxICoALdAVoLhgw1Wo9L+28MbB4Xmga0BNGoAu6ApAKAHx4Vw8+j+D0M+/oP262ADQn71G8AK9Qnru9iVY9L+MlIHyPuj62pQFQH8kiOStImfoLVqLQ/9vkisMv43182ICQH8kiOCvXk+Jlyw+A4P+n6UkIpNqX+o/cdOQBCCB7CF1mzS2AV7/m2idvGYu5EbQlwRAu7+atAk8i/r0yi+g9c9wZcUIpDMwkgQA0le1luHA7/CzsPofZfiJo6ABITkA9EeCCN7qW5kaOB1Q/Q8xlSudmoCMtNSlAADt3za2Fn4Jpv+9jNWJ3oTcCLakAIggTYAx1lVkM4z+f342YwcfR7rGMgCgPW+NYKOsY25ky0MQ+j+HeXAWQX5ioQwA+icowi7lI/ZWlu41r//XV7H3by3kPtuTAEC/r5oQrNjH0czZPzet/1/z/Mo1kJ62mgQA+h1VxTbg3FU87bjnmNU/38UChyEn2UQCAP2u6uJ3P8LX0KrXDap//Shf5xZAWoFNcQBAI0Ff8rb1a2P6P3cFb9/+CmgFkuNBRAD0e6pjOR/bTPnAkP5PPcTdtWeRRlsoAOjvG8FLsZS/tVEjOSI/F7hedCGkoe0LA9AEhHO9SHO3z9ev/3UivpGDkN72SBiADHB52i3U3n/1u//3i/TrbkhDKxMFoAHZNcGrge/UrP+5vxXr11rIz6wuCID+SBDBTfmNWIvLL2RT5NrGLNnO9tzfBX/pHsiFtiUIQAS5Or0m2OROwQ95HxsAuwS7tQlymLuCALiQPZsUbHIlkx5z9jcHmHYAor90B9KJlgSAgfPrxRuUl4Tb/JxBjzflPTjC8OC/RHu1FRIAUjzIgQxTEAC4SLjNqxkCubkPTq2jPzko2qtdkO42UjzIgYwEEdwAQ8JtXkvV4upvC2ZK+jmDe0V7dRLoZisRAiCEBGCNcJvUwPDmz4oeXUGtBbpHuFvzIAFoigBg4pKAQPl2K5tD/YoJFeHpBYFWivZrA6QjgDDQDuTSRPADXSXa5E9pKryB9PQa2tPfiPbralAAGgIAJKAA7BRs0R2naPAT4sVwq2gVgVdPCXbsfFAAfAEAIlAARE+l0wpBXk7xLzxJuw/sJsGOdSA9QQSPmwPJJQGAFWINUorBp9svoLWwhbYIPCNmBtyf4vzUHEDblASA0KBcTK3pTL8Tiu5LvkIIzp2wANS5ATBRzz5UOigRPS+UKcb8MrWZ8W/O5u5dDAtAixsAE5cEEGJBnFFXd/SF1Qye3CUn0JuaTFnk89NfO4GrhztgAehyA+DCArCFo5nmwjPXM4bzL6G3dh1rasDaNfG37J0chQUg5AXAQCSICMAlzJ/+bTz1PH9Cb5HntPHE7le3Mt43fhcsAIXxIAcuEkQEYBHL8+c9/jzHRU5H5GZ6o7w3Q44//SHLKdZTgAGocQIQAwNwHu3Zax4YELjCe5zapxMEao/NPecAFdgVwAAknABAXxdNfv+iq/4hmAG+mNanSwSTBee9N0r0Mb0GDECTDwAz10UTglRbCx8a2/HevFRYqEUnfiLe9sTzC4u53QgMQFE8yIGLBBEdQQUem0UHzpE7/EFNNr5ZLmt49flnTWLcBRTGgxw4NxARgDjv07/1U+m07mW0Lo1Lv2LJI5e939vuadAA+FwARNAAzNqvDV/SeVDNuS9KMGixmuMDe3993RTz0mJmsCMuADJoAKZf4jz24dPjqSqhRAO2KXvR5j3J9OONj4GmXhUPtgMXCSICcCz5bnjrY7snUoVyI7lHas+YX3jlKctpznhjX1udA4AWOABHPTYLtj0zniqWM8k9Ul57dv5z9x/det4GDkCLA4CuoT4RsoKHt7yo9tNnigdN6nhletGdK066GRyAmAMAFxyAc7WVgieGmfbpeus9xb/HMzTYITsAprrEcKuZeln9RmFa3+Rb8wA6ZMrgyo8HOWCRoIztblsNMn5V7gw39irMBRRtU6PdZgYgzkCXJf1y7ukLZnfl7o/mA3XGNzXaCTMATVNdilIoufTKGQe9F98LdwGRMQCarAAEGWiXDMn6F477aQ49BXkDWdfYcLMCYMwqYbndWqPMXXO03s+iNmgvTLndCzZdDuScxHCzqWYZ2Rr9BroPvqlNd67N7cAhGSaN1MrRKTdxwUwuB8wz5VvFm151XTYAjCQEM1xsXilJjAx6nQkAI5GgZmCVbt730mICwMiZIKt/CNM7ZgJAe36C261ZfedEYGqxblswZAFAbySo2W3Vra4LpV7zI50UeAwAaIoEhVHit63u2fYEDd+PtIDQZgBAnT3qRlHk+77fajQMLfnX777tsn1R9MAbbypv+qLHt8zJsqkth2/YY+zOcu9IEWPf97vKYEgYAGiqWeZbZr088x8duOzgNOtl3xVq25+xNZraeviOJ8xeXa/IQGjSAVARCYpNetcvffu9t67rPfF1jcrsvmBjXvrIJYdvuNYkBjUF5jkdAHmfVNPUt7+k/tTCuxYXHc+efFTdm04hZBH++PAd1z5cmq1igwqA9DtMJHks2fD0wu5Sysn8u5WF+OmVZaZ+HN/xnAEMpC10nwpAhFz/9Wce7zLeJ3WvqnduZPztK38cb3ruQtQERFQAXNVWhrKvft2aA2ddwFOYJ1SU4z0xzDUEU4viv1ztTWgaBslNmksDQDYS5Gn4zeuX/dkfvfgE/s7sVvP+DSIDMbVo26YTL1SPQSD5hdYpALRwLQDLbu6Mvi/cmxE1nXhKfDxWnrft9OdRTQEtCgCSQSnF+79P5HqjCIA/y/XigNoxqav9RB21kSDVHr+lUr1R5Aq4UKoTw6cqHhO18SBHbSRI9Yp3p0xnJlX1YkymF9epHhNJI8AjAtA2A4A30ulGCcMMPS7TmdsN+IHo8hw99nMkAyNKBuomZoDZq7SjNhLEYsaOxMfWmXDgyDngAdK68SGGrMObJDpxNmkjEHdG6sEPCThhPBJoByAhAiAbCaJB7A3OdDSFIflOq/RjDIvvZok14EXSp5+XKzlAYUB2km4SAVAfbpyh/Sabd2q67Bfuy1nqlt3L9FBYsOUiMyCdPEgCQDoS5BZ2PRiIhLxH/xTuyyPqABDfB4yKmXPdQvtIPmGrQQBAPiG4wBM00uVxTkyXe0SN3pNVWt4/07EmEidzN8n9LAL5dI0WAQAF2UA5C3owGEoEEE4X7MigSgCuFuzEwVRiMo9GNCwAs5dpR2koMM8MqDOksnjqp4BV5yrdfO9SPwEwePXDzsyR8VSka0UEAJSknk1PCKknTRFoZsiNQr34X7Xel01CnfiZfGS3OXgcIq+jRD8uAYBMjYSdkaGgPjTYdYX6NEu2j6n+9o7L/KFNdzzN9J9it5kTw5HsX3PU6XQ6ibKyHfoBUGI5yFkBLFXfT/zeMn2NJYdtm+oJoA422BgBILoCRKyAm6ganXv4h/9muCbmHNWzUGwBYDUDBawA+hXSM49ALqT//2dqw0CBawFg8B98J5dy2+D0a8B/P/MB+k1B5/P2YZWnNb1TCwAhWKdcogd8hLc5ambmy7OqRc5ZRjUYeT/ZL4nNwQ11qNkPICjk0N0+vsZO4bfpDqrOxVo6gXQCIPkBuhnSKeBlvhubqZkGOReHDNGeuZzvB5Evso1wAtCC6xZ5J8i3FdxFTcbNGf9D1Cngdp4+fEjOAQEc6ERnNFDZ0tSTGs6THfilkGv/PdpTPJF4dxzrBECMBgJuA2hTwJkcLVFrfh/Ke+rJS2mP3c3ehfPRTgDEfABII4AyBaTfMDe0Q3BHR3UHvcjchRUp2gkgIgJQwzsFLDnE2g7tJMb8BfnPTdLKxY+znk46+yW8E0CLfC7AxTsFfD3F1gzVmis8AH0/7cl/M/6Sj/FOAJS0cEMFC4V8AeltbK3cR9HivMIt5TCtrAijIfLTFO8EQDsZ5EF2zqUkxI6yNLKSdvHDacXPdoWsx9nSnCjPBNB7PDyG7F1CHrntixna+C9Fh1cMC3tv0vQ+FgIphSJA7awexHsA8FxMfM6SRxmaoDn1ifmdiygP38Ngh9xKaSOEHGB6iRiDtwXQ9ygCX89rlBaGyI8/Q3n8flkDAHZ8WcrEBbgInSUHaA08I7eKh+slAwJ/oJ2MA91nBQwAwBqpIe1w3A7y82MTksf8bkilLLjzaJWpusg+L0c+7ml0K5iuJ2vgcfLTS6je3ElKOvkaMr8vpYi3gHk2Nuy1cXlCS9I992LCw7QDoQzJZW+QW5g4m/DsNZfTFgDI9TX3jgYH3TpFrTO2l6CCu8iPrmVIKzjpYWEr5KQHU8QWoMt+dSxgyjLLhcIXLSh8do+CgNID5DZWFz/5Oq3noOOab187+JwVLrXU3IVPFjy6S8IH9IP8itzKWUXfP70WCOTaWhBqc9BlrbMUmzwjFDLhGS3wLeRWvsh/atU7KeYFoCjt2sHosKbXdvlTLgGUA6HMZztuJr/85FwHMDWnEHQBKPyoHJT2Kv243p8Wc1D+vZzH7IwgXyX8f3n6f4XaZcgRLQ6zOcW8Am4FQnqtpP/kJAn+TmIHP0OuJG9Ee/cSU3T9g66qxV+UgzNqxVBydm3PInUe+YHF7K8fe4jY0s7Z/3/32/T+Qg4nIdfKUXcSwlSXj7tkZgdmXiD+O1fNybe4ThV8No/eW8gJlfQ5OVgzF1hO7ddm5OhNbibO25M8b1++mvjiLTP+eZThZooAcAdI3FU5WM2WkKXs8CtjFE/3D/ITvteTz3VMrx8+fCNDRyENAHKelYN23opYxvXladFdoh/+4ZM4X0/0Bk38AN7UtSz9rKGdSx28HWe6e2D7Xcf+faNMFJmXv4XH/m3xVyy9hPQAUKwpCgDYDcE0nfho1Xf//S7pv37F//YTiQGp753Kh7ez9NFz8X5GNAAQnWIrknVH48PEosyzrDYmWUr0Bl13dHU9kamDaA1AJgAge++yFVDffGQ/+BjpP4QKLP+C1OITR85/MVajBkwCopvSDn39wu0RPCqfLDiBpIy5QhePLCAeMNi1qsXWN9ANAP0LogMgXZ9cagZjJGAe0Xn7R7GXEy/7+fNXjPqHDAEyWFEO8p/QVHAL0fw5Yu9ePk/+3aD7qCRVAwBoJmskr4OFou8+XG79Mw2dg92Mlb+KcPVy0VcPLyuz/tkMKCYAQA1BaQJiuOkHNLOObQvFBgCoIShJwLJhiVfvKa3+2dxozADAnmiTIkDKk3VI5vJf0HkzSdUCAHukKRbfCzwh9+YXxPXfhtQ/8+LFDACoISi+G5w4JPfiBUtKOf+HgXIAYCc0YQJ+L/viV8uof0YDkA8A2HONPL9pmixZIPvelWLeINADtqwGICcAoIVkBQkYkH/vJsNbTwXCc2euU56fxcP1cfl0YHRS4vM/eN9egZcGoGWg6KWuhAGANQTZtzaz5J1EKLdx1/1Xzxd6Xx12mPjMJS4AgCtIZVlXdDOw919vcOWEjG28QdgN3IAdJM6l0uH8cbAAZM16KiybH2z9iH73jLtl55WfjEu4fwaBh6id6gQA2BDMMreWSsk9666+760dW57M8Q+vXLTtL9fulWs+DbrAA+SnegGANgSlvIIzkgSCW7yvN/zuzTN/V192xRm3jG9X0mo9BB6dbqobAGhDUG4Z0Cw18LEJtAMAbghmmTuIU/3g07+Ir4QfAHBD8Eiow0Oo/zb4l8FrAAoCAD/RZZnbRvf5x/Cj4qdmAEgR/Nasi2sSaIQIhiQ1BUDaREAAJksAfvUXDpiKARC4GYZfjGU7MIhhOFyxKVEMANgqjl10AAAGC0lEQVSKhz8IDgIiFGPRSE0CgMEQpN4yVSkAWqlZAFAYgj4OADB8DMJ5s8IAYDAEAxwAILCIxE/QOSX+2XGKRBLokXDF98TiAMAbgk0sAIAbAY0UAgD4tQ+JL8iDHodWCgMAuCGIxB9cK/NS6JR57kOyC/CBV8IADgDYK+awAACcLi+3EMoBAHxcKDc9rBuPaFP1SG46Eqw13EghAYA9AV/UITepa9G+WzDpILwJxhgAkHvgXGV8vyiFyZB67RdNuIBfgbQvRBoAQEMwIK/HbjyixlXoDXRd8oiDmULyrhB5AMAMwRxVDMSzbJKm7EQQjMSzfl93IECzD3ADBABAGYK9k3E7H8WoMyJmKHsjSe7q3puKAvURKDB1FAAAtAT2WACkOkZhtzPCM1r1gSRyOVxvMENQS3EAAGII9sx+DOnqzW5ncIjMQX2ok0R0q76BwQpQEgxTAgCEIdjzEXKk5UVRlHQ6ncGh72Wg0+l04ihi12LEM/2gjoWpAcD8caGeX2/4tEID/BtwA0QAmDcEoRXQA6DxA1OKfF2KADA9BcbAE0AOgYa3grUUFwBmf3/v9Gc8Mt2F9QYpy4ZSBoDRSpI9FmBg3gbzICchdclQ6gAwaAhGGCKyCWB+TBggBMCgIVjHEI/rjUUaS5N1FQY7FQJgzBD0cWTltcEGoJbiBMCQIdhEEpPuQtlBSYoVACMDkDf/wcRiApjIaJTiBcCEIdhCk5MF05MwQAyAAUOwiycrqQmxCrqKs90UA6B9M5zrAYdKSfEA8gNrKW4AdO/I2wDQ8awBujckSYodAL3ukK7xN3L747QuAlGKHwCthmBubhfc2QTPcI5kGJQAAJ2B0RhBIJK2BmhMD3M1HHfQAIDGNdlDtQIUFWbT9gHU0nIAoM0QzI+BQp5PNOoQ1XIUUgsAuj7K3OPgoKfzGwZ71E3LA4AeQ9CF2HeK7Mq0/PpmUCIA9BiCXfBElF6z3Nga4GqqiagJAC2GYO4aGGSgUjcFgK5qKLoA0LEZ8tGtAAV2acPQb0cNgAZD0Me2ByiKTaiHv5uWDwD1ppCPKQ5A2psrXwKaQRkBUJ4il+cIBy/RFxqwS12NRbE1AqA+OyLANwHkuYOV26U6y+HpBED5WljDZgHkWwGqVwCtxdC0AqDaEOwJhiUZAok0+0C6aXkBUG0IxqbibhK9Uu0FbQZlBkC1IThjrDsZEomm6Uj11fGu5oLImgFQbgj+cGNgPcrQiDt4DIEB1VZJIy03AOqn6e7AUJoODSJS/1EE4sGhocFEeQiklZYdAByGWllF/50Y+gFII6tHpAagIQCC0GoSpwFoCADgkuIllkbaHwBg2a+XTVppvwBgDUGcBqA5AKwhiNIANAiANQQxGoAGAbCGIEYD0CQA1hBEaAAaBcAagvgMQLMAwCbwl8wATPsRgKBpNctoAAZ9CYA1BFmlnvYnAJAn+csktbRfAYC+ZdcagNAAWEMQlQEIAIA1BDEZgAAAWEMQkwEIAYA1BBEZgCAAWEMQjwEIA4A1BNEYgEAAWEMQiwEIBID5K/bKov96Wg0AMBzqtgYgJADQhX1wSpJWBwDI8q5YJUqrBIA1BGdLGFQKAGsIYjAAIQGwhiACAxAUAGsIwhuAsABYQxDcAAQGwBqC0AYgMADWEIQ2AKEBgLrx0xqAWACwx4VgDUB4AKwhqLsOJHYA0sobgs2g2gAEFTcEQQ1ADABU3RBsp1UHoNqGoJ9aAKpsCHZTC0CVDUFoAxALAFU1BMENQCwAVNUQbKcWgCobgn5qATguFSwg1E0tANOkcpUkMRiAmACoWiVJFAYgJgCqdm68kVoAqkxALbUAVJmAVmoBqDIBSWoBqDIBtdQCUGGXoNtOLQDFBPS9PyDyUgsASVr9vQz42MYbHQCp18c1hGIvtQDQpd2nXsFuA+FgYwQgTetJ3zEQ+h7KocYJQL8x0PTrWMcZLQBHpNGo+X5Uakl8v13HPMaoAbBiAbBiAbBiAbBiAbBiAbBiAbBiAbBiAbBiAbBiAbBiAbBiAbBiAbBiAbBiAbBiAbBiAbBiAbBiAbDCLP8PMPgGTskQgl0AAAAASUVORK5CYII=" vertex="1" parent="1">
          <mxGeometry x="789" y="349.25" width="82" height="82" as="geometry" />
        </mxCell>
        <mxCell id="Lv1oq39Oq0ErjtgaDXQU-30" value="Kubernetes cluster" style="text;html=1;align=center;verticalAlign=middle;whiteSpace=wrap;rounded=0;fontStyle=1" vertex="1" parent="1">
          <mxGeometry x="800" y="306.25" width="60" height="30" as="geometry" />
        </mxCell>
        <mxCell id="Lv1oq39Oq0ErjtgaDXQU-32" value="Deploy changes" style="text;html=1;align=center;verticalAlign=middle;whiteSpace=wrap;rounded=0;" vertex="1" parent="1">
          <mxGeometry x="660" y="342.5" width="90" height="30" as="geometry" />
        </mxCell>
      </root>
    </mxGraphModel>
  </diagram>
</mxfile>
